<?xml version="1.0" encoding="UTF-8" standalone="no"?>
<!DOCTYPE svg PUBLIC "-//W3C//DTD SVG 1.1//EN" "http://www.w3.org/Graphics/SVG/1.1/DTD/svg11.dtd">
<svg xmlns="http://www.w3.org/2000/svg" version="1.1" viewBox="0.00 0.00 990.00 259.00">
<path fill="#27452d" d="
  M 134.91 204.94
  L 134.91 208.97
  A 0.79 0.79 0.0 0 1 133.47 209.43
  L 132.84 208.56
  A 0.57 0.57 0.0 0 0 131.98 208.48
  Q 131.47 208.98 131.30 209.46
  A 0.75 0.73 31.2 0 1 130.09 209.74
  C 127.70 207.54 127.93 200.63 127.91 196.48
  A 1.87 1.81 -0.8 0 0 126.00 194.68
  Q 124.12 194.72 122.80 196.56
  C 118.79 202.16 114.42 205.58 107.53 206.28
  C 99.44 207.09 93.52 202.66 87.20 197.98
  A 0.76 0.76 0.0 0 1 87.67 196.61
  Q 93.61 196.71 98.23 193.22
  C 100.82 191.25 104.05 187.80 107.26 186.38
  Q 116.32 182.40 124.51 188.76
  Q 127.75 191.28 128.65 191.76
  A 0.56 0.56 0.0 0 0 129.40 191.55
  L 135.44 181.08
  A 0.72 0.72 0.0 0 0 134.72 180.00
  Q 113.90 182.70 97.76 169.46
  Q 93.80 166.22 92.48 164.85
  A 4.80 4.77 -19.6 0 0 89.40 163.40
  C 80.97 162.71 74.89 157.45 73.12 149.31
  Q 72.07 144.49 71.97 142.73
  C 71.66 137.11 66.94 136.76 62.61 137.59
  C 59.15 138.25 53.99 135.57 52.29 133.18
  Q 47.79 126.84 43.95 122.30
  A 0.57 0.57 0.0 0 1 44.37 121.37
  Q 48.07 121.27 50.85 120.52
  C 58.42 118.49 64.45 118.95 69.76 125.51
  C 72.11 128.42 72.21 131.62 72.95 135.89
  A 0.27 0.26 55.2 0 0 73.44 135.98
  C 77.03 129.89 73.85 124.09 73.55 117.83
  Q 73.04 107.09 73.61 95.86
  C 73.86 90.88 74.87 86.60 75.42 81.59
  A 0.99 0.99 0.0 0 0 74.11 80.55
  L 70.25 81.92
  A 1.92 1.92 0.0 0 0 68.98 83.78
  C 69.11 88.37 68.92 93.33 64.53 95.76
  C 62.31 96.99 59.27 97.17 57.23 97.64
  A 3.65 3.57 -68.6 0 0 55.94 98.22
  L 54.04 99.59
  A 0.43 0.43 0.0 0 1 53.37 99.21
  C 53.61 96.08 53.40 93.28 54.27 90.61
  Q 56.48 83.82 63.69 80.86
  A 0.65 0.53 24.1 0 1 63.91 80.80
  L 66.89 80.48
  A 0.63 0.63 0.0 0 0 67.19 79.34
  C 61.65 75.41 61.50 70.31 63.73 64.51
  Q 64.37 62.86 65.67 58.88
  A 0.46 0.46 0.0 0 1 66.56 59.02
  L 66.56 60.96
  A 0.77 0.76 -9.7 0 0 67.58 61.68
  L 69.08 61.15
  A 0.63 0.63 0.0 0 1 69.74 62.19
  C 64.43 67.56 65.12 77.16 75.01 75.90
  Q 77.50 75.58 78.14 73.61
  C 84.04 55.45 95.55 39.26 114.56 34.38
  C 137.83 28.40 159.27 37.29 171.29 58.00
  Q 179.75 72.57 181.57 89.04
  A 0.57 0.57 0.0 0 0 182.54 89.39
  Q 183.81 88.16 184.75 86.22
  Q 191.65 72.16 190.83 56.24
  Q 190.72 53.96 189.57 53.02
  Q 185.93 50.00 185.38 49.46
  C 174.98 39.31 182.53 27.24 192.47 21.16
  A 0.62 0.62 0.0 0 1 193.40 21.76
  Q 192.68 27.87 193.67 32.40
  A 3.96 3.79 -65.5 0 0 193.97 33.26
  C 195.57 36.61 196.26 41.01 194.59 44.67
  Q 193.58 46.89 193.49 49.25
  A 0.19 0.18 -80.3 0 0 193.62 49.44
  L 193.87 49.53
  A 0.13 0.12 -72.3 0 0 194.02 49.45
  Q 196.32 43.34 202.06 40.09
  A 1.62 1.35 16.4 0 1 202.36 39.96
  L 211.70 37.14
  A 0.61 0.60 15.9 0 1 212.28 38.17
  Q 210.31 39.88 207.26 41.40
  C 196.93 46.55 196.47 55.79 196.14 65.97
  A 0.38 0.38 0.0 0 0 196.52 66.37
  L 229.64 66.37
  A 1.66 1.66 0.0 0 1 231.28 67.76
  Q 231.57 69.47 231.11 70.69
  A 1.82 1.76 -8.5 0 1 230.45 71.55
  C 226.14 74.62 223.46 75.53 225.08 81.89
  Q 226.92 89.13 239.17 135.57
  Q 239.69 137.54 240.64 139.06
  A 0.28 0.28 0.0 0 0 241.15 138.98
  Q 242.84 132.23 245.67 122.47
  C 246.57 119.38 239.78 116.47 237.34 115.65
  A 1.08 1.08 0.0 0 1 237.64 113.54
  Q 241.92 113.37 246.18 115.57
  A 0.93 0.93 0.0 0 0 247.51 114.98
  Q 249.45 107.51 252.80 96.10
  C 254.36 90.84 255.00 85.97 255.94 81.61
  C 257.12 76.16 255.18 73.28 250.07 71.63
  A 1.47 1.46 84.6 0 1 249.23 70.93
  C 248.30 69.27 248.86 66.07 251.54 66.35
  Q 251.59 66.36 252.47 66.35
  Q 266.86 66.28 274.74 66.37
  A 1.42 1.42 0.0 0 1 276.14 67.61
  Q 276.39 69.38 275.99 70.74
  A 1.68 1.65 83.6 0 1 275.23 71.71
  Q 268.50 75.58 266.73 80.99
  Q 260.00 101.63 255.28 120.52
  Q 254.70 122.84 254.70 125.21
  A 1.98 1.94 29.4 0 0 254.98 126.18
  Q 257.99 131.01 259.40 133.29
  Q 268.42 147.91 264.84 162.88
  C 261.67 176.17 252.34 186.81 239.16 190.88
  Q 230.00 193.71 220.88 191.10
  C 218.36 190.37 214.87 189.40 212.60 188.22
  Q 196.80 180.01 186.60 169.11
  Q 178.81 160.79 169.45 158.23
  A 1.17 1.14 29.5 0 0 168.32 158.53
  L 168.26 158.59
  A 0.43 0.43 0.0 0 0 168.45 159.30
  C 177.92 162.08 184.46 168.72 191.34 175.69
  Q 195.43 179.83 198.78 181.72
  Q 204.08 184.71 207.03 186.47
  C 213.95 190.59 221.05 192.61 229.20 194.32
  A 0.32 0.32 0.0 0 1 229.43 194.74
  L 229.35 194.98
  A 0.09 0.08 -80.3 0 1 229.27 195.04
  Q 217.91 193.86 208.80 188.73
  Q 203.21 185.59 196.35 181.28
  C 190.46 177.58 186.42 172.64 181.79 168.44
  C 178.08 165.06 171.90 160.42 168.03 160.90
  A 0.56 0.56 0.0 0 0 167.99 162.00
  Q 171.56 162.69 175.37 164.56
  Q 177.74 165.73 181.52 169.35
  C 186.45 174.09 190.44 178.61 195.91 182.49
  C 204.88 188.86 216.35 195.19 227.19 196.30
  C 239.44 197.56 251.11 190.79 259.68 181.97
  C 267.04 174.40 269.75 163.73 269.94 153.32
  C 270.05 147.21 267.50 140.38 267.57 134.56
  C 267.75 119.48 275.68 110.71 287.54 103.06
  A 0.46 0.46 0.0 0 0 287.67 102.43
  L 287.66 102.42
  A 0.43 0.42 56.5 0 0 287.06 102.29
  Q 280.13 106.84 278.63 108.13
  Q 266.46 118.64 266.05 134.73
  A 1.51 1.39 42.6 0 0 266.07 134.97
  L 268.93 151.78
  A 0.42 0.42 0.0 0 1 268.39 152.25
  L 267.98 152.11
  A 0.30 0.28 6.7 0 1 267.78 151.87
  Q 267.05 146.79 265.90 141.38
  C 261.96 122.83 271.75 108.19 287.84 100.26
  A 0.80 0.79 70.1 0 0 288.26 99.36
  L 288.23 99.26
  A 0.51 0.51 0.0 0 0 287.50 98.93
  Q 278.46 103.74 277.04 104.81
  C 267.49 112.04 262.93 124.02 263.07 135.69
  A 0.29 0.29 0.0 0 1 262.54 135.86
  L 255.90 126.59
  A 2.82 2.55 -73.1 0 1 255.49 125.72
  Q 255.05 124.05 256.25 123.97
  A 0.84 0.84 0.0 0 1 256.65 124.05
  Q 257.59 124.51 259.40 127.25
  A 0.51 0.50 -55.3 0 0 260.31 127.08
  Q 265.71 104.23 287.66 94.73
  A 0.73 0.73 0.0 0 0 288.09 94.08
  Q 288.30 86.15 287.80 77.80
  C 287.62 74.83 284.17 72.70 281.42 71.76
  A 1.40 1.40 0.0 0 1 280.66 71.16
  Q 279.75 69.69 280.74 67.41
  A 1.98 1.97 11.9 0 1 282.59 66.21
  Q 304.30 66.50 332.76 66.29
  Q 335.35 66.27 338.49 65.53
  A 1.20 1.20 0.0 0 1 339.95 66.49
  Q 341.45 75.30 341.58 84.91
  A 0.96 0.95 -10.3 0 0 342.86 85.79
  L 356.32 81.02
  A 1.78 1.76 -16.3 0 0 357.46 78.96
  Q 356.42 74.44 352.32 72.28
  C 349.92 71.01 349.49 69.86 350.35 67.55
  A 1.96 1.96 0.0 0 1 352.18 66.29
  L 375.19 66.29
  A 1.15 1.12 -59.7 0 0 375.77 66.13
  L 395.29 54.86
  A 0.40 0.40 0.0 0 0 395.21 54.14
  L 394.64 53.95
  A 1.37 1.35 -50.8 0 0 393.51 54.07
  C 381.56 61.09 370.09 50.29 367.17 39.08
  A 0.60 0.59 -83.6 0 1 368.02 38.40
  Q 371.55 40.23 376.03 39.75
  Q 386.08 38.67 392.58 45.46
  C 396.31 49.36 395.77 53.61 402.55 52.54
  Q 423.46 49.24 440.80 60.95
  A 0.50 0.50 0.0 0 0 441.53 60.78
  L 441.54 60.77
  A 0.68 0.67 -53.1 0 0 441.43 59.96
  Q 438.88 57.37 431.48 52.19
  Q 428.81 50.32 425.80 45.95
  C 421.25 39.36 422.73 28.16 425.98 21.60
  Q 429.49 14.52 432.02 10.76
  Q 432.32 10.32 432.69 10.20
  A 0.83 0.82 76.6 0 1 433.75 10.86
  C 435.00 18.44 440.49 23.25 445.85 28.88
  Q 455.05 38.55 449.86 50.88
  C 447.38 56.79 443.12 63.94 448.65 68.01
  A 1.30 1.29 51.1 0 0 449.95 68.15
  Q 468.86 59.80 487.84 68.37
  C 491.26 69.92 493.47 67.51 495.74 66.11
  A 1.72 1.72 0.0 0 1 498.31 67.16
  Q 498.54 68.05 498.64 69.83
  Q 499.36 81.50 499.85 92.57
  C 499.99 95.73 500.40 98.10 496.93 98.65
  A 2.13 2.12 76.6 0 1 494.58 97.20
  C 492.27 90.06 489.45 83.81 483.88 78.66
  C 476.34 71.72 465.29 71.05 457.51 77.81
  A 0.91 0.90 53.8 0 0 457.34 78.97
  C 462.43 87.11 465.80 95.94 466.56 105.34
  Q 467.11 112.23 464.71 120.49
  Q 460.51 134.95 451.04 146.63
  A 1.57 1.55 -38.8 0 0 450.85 148.30
  Q 454.83 156.40 462.16 160.69
  C 466.20 163.06 473.84 163.11 477.92 161.68
  C 483.34 159.78 483.07 156.25 483.40 150.64
  Q 483.91 142.00 483.20 130.45
  C 482.91 125.77 480.08 124.90 476.57 122.93
  A 2.14 2.03 -4.0 0 1 475.94 122.41
  Q 474.56 120.72 475.01 118.55
  A 1.46 1.46 0.0 0 1 476.45 117.38
  Q 479.69 117.41 508.27 117.41
  Q 511.27 117.41 510.61 121.22
  A 2.32 2.30 -7.1 0 1 509.26 122.94
  C 505.73 124.47 502.70 126.63 502.42 131.06
  Q 501.45 146.22 502.90 159.18
  A 1.86 1.83 -33.5 0 1 502.65 160.36
  C 500.66 163.75 492.51 166.94 488.96 168.17
  A 2.79 2.76 -89.9 0 0 487.23 169.91
  L 484.61 177.73
  A 2.17 1.34 -31.7 0 1 484.49 177.97
  Q 479.20 186.46 471.55 191.06
  A 0.41 0.41 0.0 0 0 471.74 191.82
  C 481.19 192.31 491.59 191.83 496.25 201.86
  C 499.26 208.32 498.10 215.82 503.47 221.18
  A 1.32 1.31 70.4 0 1 502.41 223.42
  Q 494.59 222.64 490.90 222.14
  Q 488.97 221.87 484.28 220.33
  C 474.26 217.02 470.20 205.91 470.86 196.38
  A 1.36 1.36 0.0 0 0 470.01 195.02
  L 466.43 193.59
  A 1.59 1.58 55.5 0 0 465.85 193.48
  Q 456.15 193.77 449.89 191.68
  C 444.55 189.90 440.61 184.43 438.28 179.40
  A 0.54 0.54 0.0 0 0 437.30 179.40
  C 436.10 181.95 437.08 183.51 437.55 185.99
  C 439.42 195.73 435.16 204.22 425.89 208.01
  Q 420.54 210.19 414.39 211.17
  A 0.62 0.61 15.4 0 1 413.82 210.17
  Q 416.53 206.94 417.51 202.49
  C 418.27 199.02 418.02 193.25 419.56 189.96
  C 421.11 186.65 423.19 183.88 426.82 182.32
  C 430.55 180.72 434.37 178.77 435.76 174.78
  A 0.13 0.04 -61.8 0 0 435.77 174.73
  L 436.56 159.33
  A 2.47 2.44 28.5 0 0 436.07 157.72
  Q 426.27 144.65 424.46 128.54
  C 422.36 109.86 426.20 87.39 440.76 74.51
  A 0.99 0.99 0.0 0 0 440.80 73.06
  C 428.36 60.64 408.91 57.11 393.33 65.88
  A 0.43 0.43 0.0 0 0 393.48 66.68
  Q 407.56 68.79 413.83 79.94
  C 417.19 85.92 417.51 94.43 416.05 100.60
  Q 412.90 113.93 400.30 119.48
  A 0.74 0.74 0.0 0 0 400.04 120.65
  Q 403.79 124.91 406.28 130.22
  Q 416.17 151.29 417.89 155.08
  Q 420.68 161.20 426.58 164.66
  C 428.89 166.01 427.93 169.76 425.25 169.68
  Q 413.30 169.33 409.53 169.41
  Q 406.04 169.48 404.23 168.14
  Q 401.57 166.17 400.35 163.18
  Q 391.77 142.24 385.07 127.93
  Q 383.06 123.64 378.06 123.51
  A 1.22 1.22 0.0 0 0 376.81 124.72
  Q 376.70 140.27 376.92 154.24
  Q 377.04 161.71 384.17 164.37
  A 1.60 1.56 -6.0 0 1 384.93 164.97
  Q 385.79 166.22 385.07 168.20
  A 2.12 2.11 -79.3 0 1 383.03 169.60
  Q 368.31 169.26 352.54 169.54
  C 350.30 169.59 349.86 167.59 349.90 165.66
  A 1.10 1.09 78.0 0 1 350.53 164.68
  C 353.76 163.18 355.72 162.42 357.03 158.74
  Q 358.06 155.82 358.10 148.76
  Q 358.19 127.04 358.08 92.05
  A 0.85 0.85 0.0 0 0 356.94 91.25
  C 350.10 93.71 343.67 95.36 336.45 95.93
  Q 327.98 96.60 316.03 97.08
  C 313.77 97.17 309.07 97.98 307.61 98.55
  A 0.85 0.85 0.0 0 0 307.07 99.34
  L 307.07 111.09
  A 0.78 0.78 0.0 0 0 307.64 111.84
  Q 308.27 112.02 313.51 111.85
  C 318.31 111.70 322.32 109.44 323.59 104.87
  Q 324.42 101.86 324.61 101.46
  A 1.67 1.66 86.5 0 1 325.19 100.80
  Q 326.36 100.02 328.61 100.42
  A 1.63 1.60 -85.2 0 1 329.94 102.02
  L 329.94 130.15
  A 2.06 2.06 0.0 0 1 327.42 132.16
  L 327.02 132.07
  A 3.51 3.49 1.8 0 1 324.09 128.96
  C 323.30 120.77 314.31 119.64 307.64 120.03
  A 0.54 0.53 88.3 0 0 307.14 120.57
  Q 307.03 140.41 307.21 153.76
  C 307.26 157.53 308.37 160.76 312.85 160.82
  Q 320.69 160.92 322.90 160.70
  C 333.06 159.67 335.68 151.87 339.25 143.72
  Q 340.48 140.91 343.99 142.45
  A 1.88 1.86 -75.1 0 1 345.09 144.37
  L 342.35 168.77
  A 0.83 0.83 0.0 0 1 341.53 169.50
  Q 307.90 169.56 282.50 169.50
  Q 280.11 169.50 279.93 166.50
  A 2.39 2.37 78.1 0 1 281.47 164.12
  Q 287.95 161.73 288.09 154.23
  Q 288.47 133.95 288.11 106.70
  A 0.49 0.49 0.0 0 0 287.36 106.29
  Q 276.84 112.95 272.01 123.86
  Q 271.18 125.73 270.31 131.58
  C 269.69 135.74 271.07 140.06 271.88 145.23
  C 274.13 159.59 271.06 172.56 262.05 184.05
  Q 261.64 184.58 261.77 185.06
  A 0.85 0.82 63.0 0 0 263.10 185.52
  C 270.56 179.36 278.55 176.29 287.87 180.89
  C 295.27 184.53 299.84 187.71 306.70 186.80
  A 0.65 0.63 87.0 0 1 307.41 187.46
  Q 307.40 187.79 307.10 188.11
  C 300.81 194.81 293.61 200.71 284.08 201.30
  C 277.66 201.69 271.82 199.13 267.36 194.33
  C 265.22 192.02 262.77 189.82 259.78 189.69
  A 3.15 3.05 -56.3 0 0 258.29 190.01
  Q 253.60 192.33 248.64 194.64
  C 228.71 203.95 211.10 197.49 194.69 185.10
  C 189.12 180.89 184.58 175.64 179.50 170.99
  Q 173.23 165.25 165.32 165.14
  A 4.13 4.11 -66.1 0 0 162.46 166.25
  Q 155.88 172.43 147.20 176.94
  A 2.04 2.02 1.5 0 0 146.37 177.72
  C 139.77 188.59 135.79 195.07 137.75 207.27
  Q 138.02 208.94 136.52 208.50
  A 0.75 0.74 0.8 0 1 136.02 207.99
  L 135.15 204.91
  A 0.12 0.12 0.0 0 0 134.91 204.94
  Z
  M 436.59 31.35
  Q 436.78 30.74 436.95 28.19
  A 0.42 0.42 0.0 0 1 437.71 27.97
  L 438.13 28.56
  A 1.33 1.31 31.2 0 1 438.37 29.51
  Q 437.67 35.13 439.46 39.88
  A 0.53 0.53 0.0 0 0 440.48 39.69
  L 440.48 31.83
  A 0.52 0.52 0.0 0 1 441.06 31.31
  L 441.33 31.34
  A 0.66 0.65 -88.6 0 1 441.95 32.00
  Q 441.97 37.87 441.84 45.60
  Q 441.82 46.22 442.19 46.51
  A 0.79 0.78 23.1 0 0 443.46 46.00
  L 444.63 37.44
  A 0.30 0.29 38.9 0 1 445.20 37.38
  Q 445.93 39.43 445.64 42.01
  Q 444.62 50.91 444.24 53.58
  A 0.51 0.51 0.0 0 0 445.20 53.88
  C 446.50 51.25 448.10 46.08 448.50 43.45
  C 449.65 35.68 443.11 29.84 437.80 24.85
  C 435.02 22.23 433.39 19.63 432.21 16.29
  A 0.28 0.28 0.0 0 0 431.68 16.27
  C 429.87 20.53 427.45 24.97 426.63 29.67
  Q 425.84 34.25 425.92 35.99
  C 426.40 46.03 432.27 49.93 441.32 54.67
  A 0.53 0.53 0.0 0 0 442.09 54.32
  L 442.10 54.27
  A 0.78 0.77 -67.9 0 0 441.75 53.43
  Q 435.56 49.59 431.05 44.33
  A 0.28 0.28 0.0 0 1 431.26 43.87
  L 431.73 43.87
  A 0.65 0.63 -25.3 0 1 432.12 44.00
  Q 435.54 46.51 438.60 48.89
  Q 438.98 49.18 439.67 49.12
  A 0.55 0.55 0.0 0 0 440.10 48.28
  C 437.49 44.04 433.04 41.05 429.77 38.12
  Q 428.20 36.70 427.92 34.81
  A 0.40 0.40 0.0 0 1 428.60 34.47
  C 431.08 36.99 433.02 38.99 435.67 40.07
  A 0.49 0.49 0.0 0 0 436.32 39.46
  Q 435.70 37.61 434.12 36.42
  Q 429.74 33.15 429.19 29.30
  A 0.45 0.45 0.0 0 1 430.00 28.98
  L 432.51 32.48
  A 1.65 1.65 0.0 0 0 433.68 33.17
  L 433.95 33.20
  A 0.41 0.41 0.0 0 0 434.35 32.59
  L 431.42 27.53
  A 3.86 3.79 -57.1 0 1 430.94 25.20
  L 431.35 21.52
  A 0.67 0.67 0.0 0 1 432.60 21.28
  Q 434.88 25.52 435.73 31.28
  A 0.44 0.44 0.0 0 0 436.59 31.35
  Z
  M 191.19 48.04
  C 192.71 43.97 194.18 40.56 192.39 36.97
  Q 189.83 31.84 190.97 25.55
  A 0.37 0.37 0.0 0 0 190.35 25.22
  C 187.42 28.18 185.18 30.60 183.70 34.42
  Q 180.83 41.80 187.86 48.28
  A 0.28 0.28 0.0 0 0 188.29 47.94
  C 186.32 44.64 184.89 42.61 184.82 39.62
  A 0.46 0.46 0.0 0 1 185.70 39.41
  Q 185.96 39.94 186.38 40.33
  A 0.30 0.30 0.0 0 0 186.88 40.07
  Q 186.75 39.00 185.88 38.15
  A 1.36 1.35 21.3 0 1 185.47 37.23
  Q 185.33 33.72 186.96 31.17
  A 1.13 1.13 0.0 0 1 189.03 31.58
  L 189.83 36.01
  A 2.24 1.87 31.7 0 0 190.00 36.52
  Q 191.44 39.54 191.16 40.97
  Q 190.39 44.91 190.75 47.99
  A 0.23 0.23 0.0 0 0 191.19 48.04
  Z
  M 187.9051 32.8762
  A 1.16 0.46 -77.8 0 0 187.2104 33.9128
  A 1.16 0.46 -77.8 0 0 187.4149 35.1438
  A 1.16 0.46 -77.8 0 0 188.1096 34.1072
  A 1.16 0.46 -77.8 0 0 187.9051 32.8762
  Z
  M 392.21 49.54
  A 0.31 0.30 -1.5 0 0 392.62 49.11
  Q 389.88 44.92 385.54 43.00
  A 2.97 2.95 -29.9 0 0 384.75 42.79
  Q 380.25 42.25 375.94 42.42
  C 374.02 42.49 373.01 41.95 371.33 40.93
  A 0.51 0.51 0.0 0 0 370.58 41.53
  C 371.94 45.55 375.43 49.16 378.69 52.06
  C 381.93 54.95 387.65 54.19 391.47 52.85
  A 0.26 0.26 0.0 0 0 391.50 52.37
  Q 387.29 50.32 382.69 49.77
  Q 377.70 49.17 374.34 45.92
  A 0.80 0.80 0.0 0 1 374.93 44.55
  Q 377.17 44.65 379.30 46.45
  A 0.46 0.46 0.0 0 0 380.06 46.15
  L 380.13 45.51
  A 0.56 0.56 0.0 0 1 381.08 45.18
  L 382.64 46.74
  A 0.57 0.56 53.2 0 0 383.31 46.84
  Q 383.99 46.48 384.00 45.40
  A 0.35 0.35 0.0 0 1 384.53 45.10
  L 392.21 49.54
  Z
  M 186.81 41.65
  Q 186.80 41.75 187.02 42.22
  A 0.33 0.33 0.0 0 0 187.64 42.15
  Q 187.72 41.81 187.37 41.46
  A 0.33 0.33 0.0 0 0 186.81 41.65
  Z
  M 150.09 113.66
  A 0.37 0.37 0.0 0 0 150.62 114.16
  L 159.75 107.62
  A 1.21 1.19 72.6 0 0 160.24 106.67
  Q 160.54 89.24 156.41 72.82
  C 152.16 55.93 140.84 36.02 119.49 42.74
  C 106.53 46.83 101.16 65.15 98.49 76.94
  A 1.26 1.24 -64.1 0 0 98.90 78.16
  C 104.52 82.91 105.09 89.26 104.65 96.21
  Q 104.15 104.09 98.83 109.90
  C 96.91 111.99 96.26 113.21 96.43 115.99
  Q 97.40 131.24 101.93 146.39
  A 1.21 1.21 0.0 0 0 103.57 147.16
  Q 104.96 146.56 105.59 145.59
  Q 109.57 139.45 114.47 134.52
  Q 123.52 125.43 135.87 129.34
  A 0.70 0.70 0.0 0 0 136.70 129.02
  Q 139.17 124.72 143.43 118.20
  Q 144.81 116.09 144.33 112.10
  A 2.30 2.25 24.5 0 0 143.94 111.09
  Q 139.57 104.80 140.91 98.66
  Q 142.61 90.88 147.73 84.78
  A 0.51 0.51 0.0 0 1 148.58 84.88
  Q 150.06 87.82 152.75 93.73
  C 156.03 100.93 154.29 107.23 150.09 113.66
  Z
  M 191.95 73.72
  Q 193.15 70.75 193.80 63.76
  Q 194.11 60.35 195.63 52.63
  Q 196.43 48.58 201.09 43.23
  A 0.01 0.01 0.0 0 0 201.09 43.21
  L 200.86 42.99
  A 0.24 0.24 0.0 0 0 200.53 42.98
  Q 194.70 48.04 193.59 55.55
  Q 192.64 61.89 191.45 73.59
  A 0.26 0.26 0.0 0 0 191.95 73.72
  Z
  M 385.11 47.44
  Q 385.04 47.80 385.17 47.90
  A 0.32 0.27 -87.3 0 0 385.56 47.48
  Q 385.46 47.29 385.22 47.33
  A 0.14 0.12 -86.4 0 0 385.11 47.44
  Z
  M 448.91 142.04
  A 0.45 0.45 0.0 0 0 449.63 142.00
  Q 456.35 131.74 460.10 120.86
  A 0.81 0.81 0.0 0 1 460.95 120.32
  L 461.31 120.36
  A 0.66 0.65 -74.1 0 0 461.97 119.99
  Q 462.80 118.23 463.16 116.43
  C 465.56 104.32 462.48 92.47 455.89 82.36
  Q 455.09 81.13 453.52 80.81
  A 1.59 1.56 -15.5 0 1 452.69 80.35
  C 446.29 73.70 442.69 69.04 436.92 65.20
  Q 429.62 60.34 421.91 58.04
  A 0.09 0.08 9.7 0 1 421.85 57.96
  L 421.88 57.70
  A 0.30 0.29 9.2 0 1 422.23 57.45
  Q 434.12 59.76 442.34 68.12
  Q 446.69 72.55 449.34 76.27
  A 0.50 0.50 0.0 0 0 450.06 76.36
  L 450.37 76.10
  A 0.67 0.67 0.0 0 0 450.45 75.15
  L 442.27 65.35
  A 3.33 3.27 -3.2 0 0 441.53 64.70
  Q 435.18 60.62 429.94 58.12
  Q 414.80 50.88 399.00 56.48
  Q 391.03 59.31 385.68 62.94
  Q 379.67 67.01 367.60 76.31
  Q 360.53 81.76 356.23 83.74
  Q 349.99 86.60 343.29 88.23
  A 0.17 0.16 -86.6 0 0 343.17 88.34
  L 343.00 89.01
  A 0.28 0.28 0.0 0 0 343.32 89.36
  Q 354.54 87.42 363.92 81.63
  Q 366.28 80.16 374.49 73.18
  Q 378.04 70.15 385.46 65.22
  Q 396.63 57.79 408.48 56.08
  Q 412.13 55.56 418.49 56.25
  A 0.36 0.36 0.0 0 1 418.81 56.65
  L 418.78 56.93
  A 0.54 0.54 0.0 0 1 418.19 57.41
  C 412.00 56.92 405.98 56.94 400.09 59.05
  C 386.81 63.82 377.82 71.73 364.63 82.11
  Q 356.43 88.56 344.38 90.21
  A 1.44 1.43 5.7 0 0 343.22 91.15
  L 343.13 91.42
  A 0.51 0.50 5.0 0 0 343.70 92.09
  Q 358.08 89.51 369.10 80.62
  Q 374.72 76.08 380.27 71.78
  Q 386.92 66.65 395.83 62.06
  Q 403.65 58.03 412.98 58.40
  Q 428.68 59.03 439.60 68.72
  C 442.19 71.01 444.11 73.77 446.73 76.53
  Q 448.90 78.82 451.24 82.72
  Q 455.54 89.89 457.02 93.34
  C 461.20 103.08 460.18 115.31 456.61 125.13
  Q 454.80 130.12 448.69 141.39
  A 0.38 0.38 0.0 0 0 448.73 141.82
  L 448.91 142.04
  Z
  M 64.63 71.87
  C 65.00 75.05 67.31 78.73 70.75 78.99
  Q 72.87 79.15 74.03 78.63
  A 0.34 0.33 -59.2 0 0 73.87 77.99
  Q 68.73 78.36 66.15 74.30
  Q 65.86 73.83 64.89 71.79
  A 0.14 0.14 0.0 0 0 64.63 71.87
  Z
  M 212.05 108.13
  Q 209.70 98.61 206.31 87.00
  C 204.09 79.40 202.73 74.39 196.25 71.34
  A 0.55 0.55 0.0 0 0 195.56 71.52
  Q 195.30 71.87 195.26 72.27
  C 194.34 83.48 189.61 91.30 182.92 99.84
  A 0.66 0.65 -67.6 0 0 183.36 100.90
  L 188.03 101.43
  A 0.56 0.53 -46.6 0 0 188.21 101.42
  Q 191.74 100.67 193.73 100.12
  C 200.24 98.32 202.93 101.48 207.48 105.82
  Q 209.49 107.73 211.60 108.52
  A 0.34 0.33 3.8 0 0 212.05 108.13
  Z
  M 376.79 113.36
  A 1.43 1.43 0.0 0 0 378.03 114.75
  C 389.14 116.25 396.11 109.64 396.80 99.01
  C 397.44 89.09 396.92 77.64 385.27 75.06
  C 380.42 73.98 377.00 74.93 376.88 80.53
  Q 376.53 96.62 376.79 113.36
  Z
  M 334.20 85.66
  Q 329.97 75.02 319.20 75.17
  C 316.35 75.21 313.37 75.02 309.79 75.14
  Q 307.40 75.22 307.24 77.78
  Q 307.07 80.66 307.13 88.07
  A 0.88 0.87 -7.6 0 0 308.24 88.91
  Q 312.34 87.79 316.50 87.43
  C 322.27 86.92 327.69 85.85 333.75 86.27
  A 0.45 0.45 0.0 0 0 334.20 85.66
  Z
  M 136.70 150.21
  Q 136.78 149.76 137.01 146.81
  Q 138.24 131.27 150.62 121.13
  C 154.65 117.83 158.19 115.91 162.55 112.68
  Q 168.52 108.25 176.55 105.31
  Q 181.82 103.39 187.57 104.55
  A 0.10 0.09 18.3 0 0 187.68 104.50
  L 187.81 104.27
  A 0.30 0.30 0.0 0 0 187.65 103.83
  Q 180.18 101.12 173.49 104.94
  A 0.19 0.18 7.1 0 1 173.26 104.65
  L 184.19 93.72
  A 0.10 0.09 71.1 0 1 184.35 93.80
  Q 184.25 94.51 183.47 95.33
  A 0.30 0.30 0.0 0 0 183.54 95.79
  L 183.85 95.97
  A 0.37 0.37 0.0 0 0 184.36 95.83
  L 186.13 92.78
  A 0.37 0.37 0.0 0 0 185.99 92.28
  Q 185.78 92.16 185.76 92.15
  A 0.66 0.65 -53.7 0 1 185.63 91.25
  C 188.69 86.95 191.04 82.65 191.18 77.27
  A 0.24 0.24 0.0 0 0 190.71 77.19
  Q 186.70 90.75 175.77 99.23
  Q 172.87 101.47 170.12 103.61
  Q 167.94 105.30 164.10 107.47
  Q 156.49 111.75 149.05 117.49
  C 143.29 121.94 139.57 127.79 136.50 133.81
  C 131.60 143.44 132.70 155.53 136.95 165.28
  Q 137.30 166.08 139.35 168.85
  A 0.45 0.44 43.8 0 0 140.08 168.84
  L 140.12 168.77
  A 0.97 0.96 46.4 0 0 140.14 167.71
  Q 136.29 161.42 135.37 155.70
  Q 132.30 136.51 146.36 122.34
  Q 149.16 119.52 156.59 114.08
  Q 162.56 109.73 166.22 108.20
  A 0.18 0.17 63.4 0 1 166.45 108.28
  L 166.45 108.29
  A 0.21 0.21 0.0 0 1 166.38 108.57
  Q 157.63 113.86 150.77 119.76
  Q 144.07 125.53 141.25 129.93
  Q 137.00 136.57 135.31 147.24
  A 1.71 1.71 0.0 0 0 135.31 147.76
  L 135.67 150.20
  A 0.52 0.52 0.0 0 0 136.70 150.21
  Z
  M 76.72 140.04
  C 78.39 129.17 86.59 117.31 94.05 109.49
  C 101.90 101.25 105.58 91.25 99.11 81.16
  A 0.44 0.43 59.4 0 0 98.53 81.01
  L 98.51 81.02
  A 0.48 0.48 0.0 0 0 98.33 81.65
  C 103.54 91.89 100.17 99.98 92.92 107.67
  C 85.95 115.06 79.48 124.70 76.18 134.48
  C 72.45 145.49 74.75 160.25 89.18 161.22
  A 0.23 0.23 0.0 0 0 89.31 160.79
  Q 86.84 159.36 83.55 159.21
  A 2.06 1.95 61.5 0 1 82.51 158.87
  Q 79.44 156.84 79.02 156.30
  Q 75.47 151.67 76.12 143.65
  A 0.17 0.16 -83.1 0 1 76.30 143.50
  L 76.94 143.57
  A 0.11 0.11 0.0 0 1 77.04 143.69
  Q 76.19 153.21 84.08 158.08
  A 0.36 0.36 0.0 0 0 84.58 157.96
  L 84.59 157.94
  A 0.37 0.37 0.0 0 0 84.47 157.44
  Q 76.70 152.48 78.26 143.42
  Q 80.32 131.41 88.19 120.38
  C 91.64 115.55 98.91 108.38 102.18 101.25
  A 0.23 0.23 0.0 0 0 102.08 100.96
  A 0.21 0.21 0.0 0 0 101.80 101.03
  Q 98.95 105.69 91.05 114.63
  Q 82.67 124.12 77.21 140.16
  A 0.25 0.25 0.0 0 1 76.72 140.04
  Z
  M 65.00 82.70
  C 59.69 84.03 55.19 88.91 55.85 94.83
  A 0.51 0.50 -12.8 0 0 56.52 95.25
  L 60.92 93.69
  A 1.92 1.92 0.0 0 0 62.19 91.99
  L 62.21 91.60
  A 0.68 0.68 0.0 0 0 61.17 90.99
  Q 59.68 91.93 57.85 91.90
  A 0.45 0.45 0.0 0 1 57.47 91.22
  Q 60.28 86.46 65.22 83.21
  A 0.28 0.28 0.0 0 0 65.00 82.70
  Z
  M 96.70 85.74
  L 95.30 99.77
  A 0.14 0.14 0.0 0 0 95.42 99.92
  L 95.49 99.93
  A 6.54 2.17 -84.3 0 0 98.30 93.63
  L 98.43 92.34
  A 6.54 2.17 -84.3 0 0 96.92 85.62
  L 96.85 85.61
  A 0.14 0.14 0.0 0 0 96.70 85.74
  Z
  M 64.95 87.60
  L 63.05 93.12
  A 0.15 0.15 0.0 0 0 63.14 93.31
  L 63.23 93.34
  A 2.49 1.68 -71.0 0 0 65.63 91.53
  L 66.01 90.43
  A 2.49 1.68 -71.0 0 0 65.23 87.53
  L 65.14 87.50
  A 0.15 0.15 0.0 0 0 64.95 87.60
  Z
  M 62.0207 87.7903
  A 1.15 0.43 -49.9 0 0 60.9511 88.3930
  A 1.15 0.43 -49.9 0 0 60.5393 89.5497
  A 1.15 0.43 -49.9 0 0 61.6089 88.9470
  A 1.15 0.43 -49.9 0 0 62.0207 87.7903
  Z
  M 447.55 136.72
  Q 447.80 136.58 448.22 135.97
  C 457.97 121.84 460.33 104.89 452.02 89.22
  Q 451.78 88.76 451.20 88.42
  A 0.60 0.60 0.0 0 0 450.37 88.67
  C 444.80 99.91 443.87 114.62 444.92 127.08
  Q 445.30 131.62 446.62 136.33
  A 0.64 0.64 0.0 0 0 447.55 136.72
  Z
  M 146.17 109.75
  C 146.06 106.99 145.22 104.34 146.00 101.01
  A 5.27 5.24 -43.4 0 0 146.06 98.98
  Q 145.65 96.46 146.05 94.16
  A 0.95 0.95 0.0 0 1 147.78 93.80
  L 149.42 96.34
  A 0.72 0.71 26.0 0 1 149.52 96.62
  Q 150.38 103.13 149.84 107.27
  Q 149.64 108.83 148.44 110.99
  A 0.15 0.15 0.0 0 0 148.44 111.15
  L 148.58 111.40
  A 0.31 0.31 0.0 0 0 149.10 111.43
  C 154.89 103.58 152.37 96.99 148.18 89.29
  A 0.57 0.57 0.0 0 0 147.22 89.22
  C 142.93 94.91 140.76 103.93 145.63 109.95
  A 0.30 0.30 0.0 0 0 146.17 109.75
  Z
  M 321.76 91.96
  C 319.63 93.20 315.26 93.22 308.74 93.85
  A 0.94 0.94 0.0 0 0 307.90 94.73
  L 307.89 95.00
  A 0.37 0.37 0.0 0 0 308.30 95.39
  L 334.82 92.66
  A 0.84 0.84 0.0 0 0 335.46 91.41
  L 334.94 90.52
  A 1.75 1.74 -19.5 0 0 333.15 89.67
  Q 329.11 90.32 323.28 89.92
  Q 317.15 89.50 308.47 91.27
  A 1.12 1.12 0.0 0 0 307.58 92.27
  L 307.56 92.58
  A 0.27 0.27 0.0 0 0 307.85 92.87
  L 321.60 91.45
  A 0.27 0.27 0.0 0 1 321.76 91.96
  Z
  M 148.08 102.15
  A 0.39 0.39 0.0 0 0 148.47 101.64
  Q 148.30 101.09 147.75 100.96
  Q 147.32 100.85 147.14 101.31
  A 0.61 0.49 -73.4 0 0 147.47 102.12
  Q 147.56 102.14 148.08 102.15
  Z
  M 201.85 104.34
  A 0.40 0.39 -34.8 0 0 201.98 103.64
  C 199.22 101.67 194.64 101.92 191.80 102.63
  A 0.58 0.57 50.4 0 0 191.70 103.71
  Q 194.78 105.13 197.11 104.57
  C 198.79 104.17 200.93 104.60 201.85 104.34
  Z
  M 197.71 109.82
  A 0.33 0.33 0.0 0 0 197.30 110.30
  Q 198.26 111.69 198.17 112.68
  A 0.53 0.53 0.0 0 1 197.32 113.06
  C 194.87 111.17 193.30 107.90 190.36 106.56
  A 0.36 0.36 0.0 0 0 189.90 107.05
  Q 194.42 115.81 204.43 115.12
  Q 208.91 114.81 212.35 112.35
  A 0.55 0.55 0.0 0 0 212.32 111.43
  Q 208.19 108.93 204.53 106.77
  Q 201.66 105.06 198.63 105.81
  A 0.79 0.79 0.0 0 0 198.66 107.35
  Q 203.68 108.32 207.14 111.72
  A 0.92 0.91 56.9 0 1 206.83 113.23
  Q 204.84 113.98 203.15 113.73
  A 1.14 1.10 -25.3 0 1 202.74 113.59
  L 199.38 111.65
  A 1.01 1.01 0.0 0 1 198.96 111.17
  Q 198.56 110.22 197.71 109.82
  Z
  M 252.68 129.23
  Q 252.38 129.74 252.19 130.43
  C 246.09 151.77 242.74 163.97 240.91 169.77
  Q 240.58 170.83 238.26 170.82
  Q 230.70 170.80 230.62 170.80
  A 1.03 1.02 83.3 0 1 229.68 170.05
  L 213.95 114.55
  A 0.65 0.64 -24.5 0 0 212.98 114.19
  C 203.60 120.25 192.19 118.39 187.90 107.18
  A 1.54 1.53 80.8 0 0 186.55 106.20
  L 183.48 106.04
  A 0.69 0.69 0.0 0 0 182.76 106.72
  Q 182.59 119.01 180.03 131.77
  Q 177.58 144.00 170.70 154.74
  A 1.02 1.01 25.5 0 0 171.24 156.25
  C 181.08 159.50 186.77 165.17 193.86 172.30
  C 194.74 173.19 195.71 173.40 196.78 173.21
  A 1.32 1.32 0.0 0 0 197.86 171.81
  C 197.46 166.52 196.47 159.01 199.14 155.15
  C 202.18 150.78 206.48 145.81 209.26 140.51
  Q 209.46 140.13 209.83 140.08
  Q 210.47 139.99 210.74 140.49
  Q 213.32 145.34 215.10 149.75
  C 217.36 155.32 218.58 164.59 214.78 169.75
  C 211.51 174.18 205.82 176.12 200.51 176.44
  A 0.64 0.64 0.0 0 0 200.03 177.44
  Q 200.36 177.90 201.04 178.45
  C 208.03 184.01 217.75 189.11 227.03 189.59
  C 238.65 190.19 248.47 185.62 255.43 176.40
  Q 264.86 163.88 262.43 148.87
  C 261.28 141.76 257.64 135.04 253.42 129.19
  A 0.44 0.44 0.0 0 0 252.68 129.23
  Z
  M 203.2674 111.0580
  A 1.06 0.67 -150.5 0 0 203.8601 112.1631
  A 1.06 0.67 -150.5 0 0 205.1126 112.1020
  A 1.06 0.67 -150.5 0 0 204.5199 110.9969
  A 1.06 0.67 -150.5 0 0 203.2674 111.0580
  Z
  M 152.95 152.52
  Q 158.95 136.09 160.21 117.79
  A 0.68 0.67 -12.6 0 0 159.21 117.16
  Q 150.05 122.15 143.32 132.93
  A 1.76 1.76 0.0 0 0 143.56 135.10
  C 148.30 139.87 150.54 146.13 152.02 152.46
  A 0.49 0.49 0.0 0 0 152.95 152.52
  Z
  M 64.37 131.06
  L 61.65 130.36
  A 1.23 1.21 40.8 0 0 60.89 130.41
  Q 57.70 131.68 55.24 129.56
  A 0.38 0.38 0.0 0 1 55.46 128.89
  Q 56.94 128.77 57.00 128.74
  A 0.94 0.94 0.0 0 0 56.41 126.99
  Q 53.09 127.45 50.26 125.34
  A 0.61 0.61 0.0 0 1 50.60 124.24
  Q 53.08 124.09 54.18 124.77
  A 0.49 0.49 0.0 0 0 54.93 124.34
  Q 54.89 123.38 55.01 123.09
  Q 55.18 122.66 56.01 123.01
  C 58.57 124.10 59.67 125.06 61.92 125.77
  Q 63.64 126.32 64.45 128.45
  Q 64.58 128.81 64.92 129.06
  Q 65.29 129.36 65.61 129.42
  A 0.45 0.44 -13.5 0 0 66.05 128.71
  Q 63.77 125.78 63.19 125.23
  C 62.23 124.34 62.75 123.02 61.06 122.46
  C 59.67 122.01 56.04 121.00 55.14 122.49
  A 0.55 0.54 16.1 0 1 54.68 122.74
  L 47.97 122.74
  A 0.50 0.50 0.0 0 0 47.67 123.64
  L 49.49 125.05
  A 0.89 0.88 15.2 0 1 49.82 125.62
  Q 49.84 125.75 49.87 125.94
  A 1.92 1.89 -75.1 0 0 50.50 127.05
  C 52.66 128.93 54.13 131.42 56.34 132.89
  Q 61.47 136.29 67.42 134.71
  A 0.51 0.51 0.0 0 0 67.56 133.78
  Q 66.74 133.27 66.00 133.23
  Q 65.09 133.17 60.77 133.40
  A 0.24 0.24 0.0 0 1 60.51 133.16
  L 60.51 132.44
  A 0.22 0.21 0.0 0 1 60.73 132.23
  Q 63.05 132.21 64.42 131.57
  A 0.27 0.27 0.0 0 0 64.37 131.06
  Z
  M 69.80 132.00
  A 0.47 0.47 0.0 0 0 70.64 131.59
  Q 68.76 126.17 63.65 122.78
  A 0.38 0.38 0.0 0 0 63.13 123.31
  Q 63.40 123.70 64.19 124.16
  A 3.08 3.04 -1.5 0 1 65.26 125.16
  L 69.80 132.00
  Z
  M 115.98 137.97
  Q 123.21 130.15 133.82 132.27
  A 0.19 0.19 0.0 0 0 134.04 132.08
  L 134.04 131.69
  A 0.45 0.45 0.0 0 0 133.69 131.25
  Q 121.19 128.38 113.86 138.07
  Q 108.85 144.68 105.56 149.23
  A 0.40 0.39 37.5 0 0 105.64 149.77
  L 105.92 149.99
  A 0.21 0.20 -50.2 0 0 106.20 149.96
  L 111.04 144.61
  A 0.39 0.39 0.0 0 1 111.60 144.59
  L 111.81 144.80
  A 0.10 0.10 0.0 0 1 111.82 144.93
  L 106.32 152.03
  A 0.42 0.41 -3.2 0 0 106.94 152.58
  Q 110.21 149.45 112.64 145.40
  C 115.44 140.70 119.16 137.31 123.02 135.42
  A 2.62 2.47 27.1 0 1 123.85 135.18
  Q 128.59 134.55 133.01 135.53
  A 0.50 0.49 6.2 0 0 133.61 135.05
  L 133.61 134.73
  A 0.90 0.89 -81.8 0 0 132.97 133.87
  Q 125.99 131.69 119.59 135.48
  A 3.58 3.43 4.0 0 0 118.81 136.13
  Q 117.52 137.59 116.33 138.38
  A 0.27 0.27 0.0 0 1 115.98 137.97
  Z
  M 106.15 156.15
  C 108.76 161.09 111.30 164.92 115.79 167.75
  Q 124.90 173.50 135.85 170.37
  A 1.22 1.22 0.0 0 0 136.56 168.55
  Q 128.03 154.67 132.41 138.79
  A 0.84 0.83 18.1 0 0 131.90 137.79
  C 126.87 135.88 122.78 137.11 119.08 140.65
  Q 116.23 143.38 115.76 144.02
  C 112.80 148.08 110.29 151.89 106.47 154.74
  A 1.12 1.11 -32.3 0 0 106.15 156.15
  Z
  M 142.76 137.12
  A 0.30 0.30 0.0 0 0 142.66 137.55
  Q 150.28 149.41 148.44 163.01
  Q 147.69 168.58 144.20 175.44
  Q 142.14 179.49 137.73 186.95
  Q 136.02 189.84 134.98 194.10
  A 0.39 0.39 0.0 0 0 135.26 194.58
  L 135.27 194.58
  A 0.34 0.34 0.0 0 0 135.68 194.37
  C 138.57 186.36 143.30 179.31 146.85 172.12
  Q 152.05 161.64 148.93 150.28
  Q 148.22 147.71 147.32 144.48
  A 2.65 2.54 23.2 0 0 147.06 143.87
  L 143.11 137.03
  A 0.09 0.09 0.0 0 0 142.98 137.00
  L 142.76 137.12
  Z
  M 132.03 202.44
  A 0.05 0.03 80.8 0 0 132.05 202.40
  Q 132.50 193.82 136.38 187.13
  Q 143.09 175.56 144.98 171.24
  Q 152.33 154.46 141.74 139.72
  A 0.35 0.35 0.0 0 0 141.26 139.64
  L 141.20 139.68
  A 0.37 0.37 0.0 0 0 141.08 140.18
  Q 149.51 154.04 144.28 168.65
  Q 143.22 171.63 138.96 178.87
  C 134.71 186.10 130.66 193.70 131.13 202.38
  A 0.28 0.27 -10.7 0 0 131.49 202.62
  L 132.03 202.44
  Z
  M 136.69 155.47
  Q 137.91 162.23 141.42 167.56
  A 0.49 0.49 0.0 0 0 142.26 167.52
  C 143.95 164.41 143.78 158.66 143.60 154.49
  Q 143.33 148.31 140.20 143.09
  A 0.62 0.61 -57.2 0 0 139.06 143.34
  Q 137.70 154.40 141.74 164.76
  A 0.30 0.29 -23.9 0 1 141.59 165.14
  L 141.00 165.40
  A 0.36 0.36 0.0 0 1 140.52 165.20
  Q 138.52 160.05 136.80 155.27
  A 0.05 0.03 54.7 0 0 136.73 155.24
  Q 136.72 155.27 136.69 155.29
  A 0.19 0.04 78.4 0 0 136.69 155.47
  Z
  M 206.42 155.05
  L 207.49 158.82
  A 0.65 0.65 0.0 0 0 208.77 158.65
  L 208.77 149.28
  A 0.22 0.22 0.0 0 1 208.99 149.06
  L 209.29 149.06
  A 0.41 0.41 0.0 0 1 209.70 149.43
  L 210.02 152.50
  A 0.59 0.59 0.0 0 0 210.19 152.86
  Q 210.63 153.29 211.43 153.15
  A 0.62 0.61 6.8 0 1 212.10 154.00
  L 210.23 158.37
  A 1.49 1.45 49.3 0 0 210.17 159.34
  L 210.32 159.89
  A 0.31 0.31 0.0 0 0 210.89 159.96
  Q 211.83 158.33 212.48 157.95
  A 0.43 0.43 0.0 0 1 213.06 158.55
  L 207.79 166.72
  A 0.49 0.48 -51.4 0 0 207.85 167.32
  L 208.06 167.53
  A 0.60 0.60 0.0 0 0 208.96 167.47
  Q 209.94 166.16 211.34 165.62
  A 0.26 0.26 0.0 0 1 211.62 166.05
  L 204.51 173.16
  A 0.07 0.07 0.0 0 0 204.58 173.27
  C 219.54 168.25 215.28 155.13 210.53 144.20
  A 0.31 0.30 -43.3 0 0 209.98 144.19
  L 208.84 146.41
  A 2.18 1.51 -23.4 0 1 208.61 146.78
  L 201.35 156.32
  A 3.72 3.58 -18.5 0 0 200.78 157.41
  Q 199.83 160.41 200.07 161.25
  Q 200.37 162.26 202.86 168.60
  A 0.84 0.83 49.1 0 0 204.36 168.71
  L 206.30 165.35
  A 1.95 1.95 0.0 0 0 206.55 164.19
  L 205.62 155.21
  A 0.41 0.41 0.0 0 1 206.42 155.05
  Z
  M 84.80 154.66
  L 80.69 145.57
  A 0.05 0.05 0.0 0 0 80.63 145.54
  L 80.58 145.56
  A 4.91 1.78 65.7 0 0 80.98 150.77
  L 81.09 151.01
  A 4.91 1.78 65.7 0 0 84.73 154.75
  L 84.78 154.73
  A 0.05 0.05 0.0 0 0 84.80 154.66
  Z
  M 443.28 160.41
  Q 443.81 155.03 448.28 151.02
  A 0.51 0.51 0.0 0 0 447.72 150.18
  Q 442.08 152.76 442.14 159.11
  Q 442.15 160.02 442.63 160.61
  A 0.37 0.37 0.0 0 0 443.28 160.41
  Z
  M 447.3572 153.8447
  A 1.52 0.60 -64.8 0 0 446.1671 154.9645
  A 1.52 0.60 -64.8 0 0 446.0628 156.5953
  A 1.52 0.60 -64.8 0 0 447.2529 155.4755
  A 1.52 0.60 -64.8 0 0 447.3572 153.8447
  Z
  M 441.90 176.04
  A 0.40 0.39 -28.1 0 1 441.30 175.86
  Q 438.72 169.12 441.06 162.61
  A 0.64 0.63 11.4 0 0 440.49 161.76
  L 440.46 161.76
  A 1.22 1.21 12.8 0 0 439.28 162.50
  Q 437.95 165.66 438.30 168.99
  C 439.14 177.01 443.17 186.34 451.02 189.13
  Q 455.62 190.76 459.49 191.08
  C 467.16 191.72 476.96 185.72 480.47 179.07
  Q 480.97 178.13 481.54 176.83
  A 0.39 0.38 -64.9 0 0 481.37 176.33
  L 481.35 176.32
  A 0.43 0.42 28.5 0 0 480.79 176.48
  Q 475.58 185.48 465.58 187.79
  C 461.48 188.74 453.64 188.59 449.70 185.56
  C 446.63 183.19 445.26 180.33 442.48 176.05
  A 0.33 0.33 0.0 0 0 442.09 175.92
  Q 442.02 175.95 441.90 176.04
  Z
  M 200.1379 162.9539
  A 0.58 0.58 0.0 0 0 199.5518 162.3800
  L 199.5118 162.3805
  A 0.58 0.58 0.0 0 0 198.9379 162.9665
  L 199.0221 171.0061
  A 0.58 0.58 0.0 0 0 199.6082 171.5800
  L 199.6482 171.5795
  A 0.58 0.58 0.0 0 0 200.2221 170.9935
  L 200.1379 162.9539
  Z
  M 444.80 166.02
  C 444.68 174.59 448.21 183.31 457.61 185.10
  C 467.94 187.07 475.67 181.16 479.60 171.93
  A 0.80 0.80 0.0 0 0 478.69 170.84
  Q 461.31 174.49 445.58 165.57
  A 0.52 0.52 0.0 0 0 444.80 166.02
  Z
  M 441.6790 167.8001
  A 2.65 0.35 -95.0 0 0 441.5613 170.4705
  A 2.65 0.35 -95.0 0 0 442.1410 173.0799
  A 2.65 0.35 -95.0 0 0 442.2587 170.4095
  A 2.65 0.35 -95.0 0 0 441.6790 167.8001
  Z
  M 482.5824 170.7379
  A 0.95 0.63 -82.6 0 0 481.8352 171.5989
  A 0.95 0.63 -82.6 0 0 482.3376 172.6221
  A 0.95 0.63 -82.6 0 0 483.0848 171.7611
  A 0.95 0.63 -82.6 0 0 482.5824 170.7379
  Z
  M 274.46 195.08
  L 268.62 189.62
  A 0.76 0.76 0.0 0 0 267.76 189.50
  L 267.74 189.52
  A 0.70 0.70 0.0 0 0 267.51 190.51
  Q 271.24 196.18 277.55 198.03
  Q 282.84 199.58 288.78 197.38
  Q 295.70 194.83 301.52 190.33
  A 0.41 0.41 0.0 0 0 301.33 189.60
  C 295.93 188.93 291.80 185.17 288.22 183.53
  Q 277.72 178.72 268.40 185.07
  A 0.56 0.56 0.0 0 0 268.66 186.09
  Q 271.01 186.30 273.29 185.23
  Q 277.64 183.17 280.51 182.81
  A 0.47 0.46 32.1 0 1 280.72 183.71
  Q 277.77 184.69 275.90 185.93
  A 0.76 0.75 21.3 0 0 276.50 187.29
  L 284.22 185.38
  A 1.50 1.48 -29.2 0 1 285.63 185.77
  L 285.94 186.08
  A 0.55 0.54 -30.2 0 1 285.70 186.99
  L 280.17 188.56
  A 0.44 0.44 0.0 0 0 280.27 189.43
  Q 282.43 189.51 285.26 188.19
  A 3.25 3.08 26.5 0 1 286.08 187.94
  Q 291.83 187.08 296.77 190.29
  A 0.36 0.35 69.6 0 1 296.48 190.93
  L 290.59 189.18
  A 0.78 0.78 0.0 0 0 289.93 190.57
  Q 290.59 191.11 292.56 191.29
  A 0.58 0.58 0.0 0 1 292.60 192.45
  C 290.90 192.71 289.84 192.74 288.03 191.84
  Q 286.55 191.10 285.04 191.17
  A 0.49 0.48 -27.1 0 0 284.76 192.03
  Q 287.01 193.84 288.83 193.89
  A 0.57 0.57 0.0 0 1 289.38 194.53
  L 289.36 194.70
  A 0.73 0.73 0.0 0 1 288.67 195.33
  C 285.40 195.49 281.67 192.43 279.81 190.22
  A 1.14 1.13 -33.7 0 0 278.42 189.95
  L 278.37 189.98
  A 0.80 0.79 57.3 0 0 278.11 191.18
  Q 280.12 193.74 283.61 195.68
  A 0.75 0.75 0.0 0 1 283.87 196.75
  L 283.86 196.77
  A 0.49 0.49 0.0 0 1 283.23 196.93
  Q 278.84 194.64 274.05 189.95
  A 2.14 2.12 61.2 0 0 272.11 189.38
  L 272.06 189.39
  A 0.55 0.54 -25.5 0 0 271.75 190.26
  L 275.07 194.52
  A 0.42 0.42 0.0 0 1 274.46 195.08
  Z
  M 427.00 195.36
  Q 425.13 196.26 422.80 198.51
  A 0.41 0.41 0.0 0 1 422.14 198.38
  L 422.02 198.12
  A 0.46 0.45 55.7 0 1 422.11 197.61
  L 429.23 190.49
  A 0.40 0.40 0.0 0 0 429.19 189.89
  L 428.96 189.71
  A 0.52 0.51 43.4 0 0 428.32 189.72
  L 423.50 193.74
  A 0.33 0.33 0.0 0 1 423.09 193.75
  L 422.84 193.56
  A 0.36 0.35 38.5 0 1 422.78 193.07
  Q 425.87 189.07 429.70 188.20
  C 430.87 187.94 431.43 187.09 431.38 185.99
  A 0.52 0.52 0.0 0 0 430.51 185.64
  Q 429.05 187.01 427.69 187.81
  A 0.28 0.28 0.0 0 1 427.35 187.37
  Q 429.86 184.91 432.23 183.75
  Q 432.87 183.44 433.06 182.60
  A 0.35 0.35 0.0 0 0 432.62 182.18
  Q 424.23 184.66 421.76 192.73
  Q 421.25 194.41 420.86 201.68
  C 420.75 203.86 420.18 204.81 419.10 206.61
  A 0.28 0.27 3.3 0 0 419.45 207.00
  L 427.64 203.32
  A 2.57 2.56 -19.1 0 0 429.08 200.36
  L 428.91 199.68
  A 0.54 0.54 0.0 0 0 428.04 199.39
  L 422.68 203.87
  A 0.37 0.37 0.0 0 1 422.08 203.68
  Q 422.04 203.49 422.07 203.16
  A 1.36 1.32 -23.9 0 1 422.34 202.49
  L 427.44 195.90
  A 0.36 0.36 0.0 0 0 427.00 195.36
  Z
  M 434.55 186.28
  Q 434.05 187.33 434.08 188.92
  C 434.09 189.86 433.46 190.55 433.23 191.06
  A 4.10 4.10 0.0 0 0 432.84 192.85
  Q 432.86 196.04 431.98 198.30
  A 0.47 0.46 -34.7 0 1 431.08 198.14
  Q 431.06 196.47 431.76 194.54
  A 0.51 0.51 0.0 0 0 431.24 193.86
  L 431.08 193.88
  A 1.04 1.03 4.9 0 0 430.14 194.66
  Q 429.48 197.19 430.24 200.14
  A 0.89 0.89 0.0 0 0 431.77 200.50
  Q 436.98 194.40 435.18 186.35
  A 0.34 0.33 51.1 0 0 434.55 186.28
  Z
  M 108.11 197.61
  Q 106.39 198.54 104.77 200.29
  A 1.72 1.68 11.1 0 1 104.10 200.73
  Q 100.92 201.86 99.36 199.70
  A 0.66 0.64 51.6 0 0 98.41 199.58
  Q 97.61 200.27 96.25 200.09
  A 0.35 0.34 -66.6 0 1 96.03 199.53
  Q 96.49 198.96 97.68 198.89
  A 1.70 1.54 -58.4 0 0 98.37 198.69
  Q 102.70 196.38 108.01 195.28
  A 0.54 0.54 0.0 0 0 108.07 194.24
  L 106.25 193.62
  A 0.63 0.63 0.0 0 1 105.82 192.95
  L 105.85 192.69
  A 0.15 0.15 0.0 0 1 106.02 192.55
  L 111.74 193.19
  A 0.59 0.59 0.0 0 0 112.31 192.29
  Q 111.63 191.21 110.21 190.90
  A 0.27 0.26 8.7 0 1 110.00 190.62
  L 110.03 190.34
  A 0.49 0.49 0.0 0 1 110.61 189.92
  Q 113.35 190.42 115.63 191.97
  A 0.73 0.72 36.2 0 0 116.59 191.83
  Q 117.25 191.02 116.59 190.02
  A 0.48 0.47 82.9 0 1 117.14 189.31
  L 122.62 191.15
  A 0.34 0.34 0.0 0 0 123.05 190.94
  L 123.16 190.60
  A 0.60 0.58 25.3 0 0 122.90 189.90
  C 117.90 186.99 110.35 186.15 105.84 190.26
  Q 100.31 195.30 94.32 198.44
  A 0.96 0.96 0.0 0 0 94.31 200.14
  C 100.82 203.68 107.38 205.58 114.22 201.55
  C 116.65 200.12 118.08 197.83 120.22 195.13
  A 0.59 0.59 0.0 0 0 119.49 194.24
  Q 116.39 195.77 113.06 199.88
  A 1.87 1.78 -86.3 0 1 112.67 200.24
  L 110.43 201.71
  A 0.48 0.47 5.7 0 1 109.83 200.98
  L 115.43 195.38
  A 0.39 0.39 0.0 0 0 115.12 194.72
  Q 113.42 194.85 112.11 196.40
  Q 108.84 200.30 106.79 201.86
  A 0.74 0.72 -54.1 0 1 106.14 201.97
  L 105.48 201.74
  A 0.26 0.26 0.0 0 1 105.40 201.28
  Q 107.55 199.70 108.49 197.99
  A 0.28 0.28 0.0 0 0 108.11 197.61
  Z
  M 482.44 211.53
  C 479.87 209.23 479.84 206.14 479.30 202.11
  A 0.59 0.59 0.0 0 0 478.57 201.62
  L 478.18 201.72
  A 0.74 0.73 -14.1 0 0 477.64 202.61
  L 478.87 207.59
  A 0.51 0.51 0.0 0 1 477.92 207.95
  C 477.24 206.63 476.60 204.93 476.40 203.18
  Q 475.98 199.35 474.35 195.10
  A 0.40 0.40 0.0 0 0 473.58 195.25
  Q 473.59 196.02 473.95 197.02
  A 3.31 3.25 -56.3 0 1 474.16 198.12
  Q 474.35 204.70 475.02 206.52
  Q 477.96 214.51 486.00 217.50
  Q 491.37 219.50 497.64 220.51
  A 0.69 0.69 0.0 0 0 498.40 219.62
  Q 496.79 214.54 495.54 209.01
  Q 492.34 194.88 477.98 195.10
  A 0.50 0.49 65.6 0 0 477.66 195.96
  Q 478.99 197.19 480.70 197.64
  C 484.44 198.62 488.25 199.33 490.78 202.04
  A 0.38 0.38 0.0 0 1 490.35 202.64
  Q 485.93 200.60 481.04 199.63
  A 0.30 0.30 0.0 0 0 480.87 200.20
  L 491.96 204.96
  A 0.64 0.64 0.0 0 1 491.50 206.16
  L 486.70 204.55
  A 0.71 0.69 -54.8 0 0 486.02 204.68
  L 485.73 204.92
  A 0.28 0.27 -50.6 0 0 485.77 205.37
  L 493.05 209.58
  A 0.61 0.61 0.0 0 1 492.55 210.69
  L 489.95 209.82
  A 0.51 0.51 0.0 0 0 489.53 210.75
  Q 493.38 212.93 495.14 217.82
  A 0.28 0.27 83.4 0 1 494.85 218.19
  Q 494.24 218.11 493.85 217.39
  Q 492.69 215.21 491.24 215.27
  A 0.97 0.97 0.0 0 1 490.48 214.93
  L 487.53 211.39
  A 0.38 0.38 0.0 0 0 486.86 211.63
  Q 486.84 212.99 487.91 214.85
  A 0.30 0.30 0.0 0 1 487.55 215.29
  L 487.07 215.13
  A 1.51 1.47 -3.3 0 1 486.22 214.39
  Q 483.65 209.36 482.86 204.18
  A 1.75 1.72 -80.1 0 0 482.00 202.93
  L 481.70 202.80
  A 0.56 0.56 0.0 0 0 480.94 203.45
  L 482.88 211.27
  A 0.27 0.27 0.0 0 1 482.44 211.53
  Z"
/>
<path fill="#27452d" d="
  M 901.15 53.84
  Q 901.18 53.16 900.16 50.66
  C 897.73 44.68 898.62 38.13 902.33 33.24
  C 906.34 27.94 915.09 23.76 919.85 19.34
  Q 920.07 19.13 920.56 19.16
  A 0.96 0.86 13.5 0 1 921.41 20.39
  C 918.52 26.68 921.47 33.91 921.30 39.27
  Q 921.04 47.29 914.95 51.66
  C 912.45 53.46 909.00 54.02 906.77 54.93
  C 904.69 55.79 904.39 57.20 905.05 59.28
  Q 906.82 64.92 908.51 69.44
  C 913.04 81.59 908.45 97.12 900.74 107.19
  A 0.43 0.43 0.0 0 0 901.20 107.86
  Q 908.58 105.70 916.95 105.87
  A 1.05 1.05 0.0 0 0 918.03 104.81
  L 917.91 79.92
  A 1.44 1.41 -53.9 0 0 917.85 79.51
  L 916.69 75.40
  A 2.03 2.00 5.6 0 0 915.64 74.14
  L 911.55 72.16
  A 1.44 1.37 82.8 0 1 911.00 71.71
  Q 909.48 69.66 911.12 66.98
  A 1.48 1.46 -73.4 0 1 912.38 66.29
  Q 925.66 66.49 941.38 66.15
  Q 943.68 66.10 944.47 66.75
  C 945.89 67.91 946.36 70.80 944.19 71.76
  C 940.30 73.49 937.54 75.23 937.32 80.06
  Q 936.75 92.29 937.22 107.90
  A 0.69 0.69 0.0 0 0 938.39 108.37
  C 940.10 106.69 940.82 104.99 940.85 102.29
  Q 941.01 87.89 955.50 84.48
  Q 958.07 83.88 960.71 84.46
  A 0.73 0.73 0.0 0 1 961.05 85.71
  C 959.81 86.85 959.29 87.22 959.10 88.96
  C 958.35 95.52 958.10 100.31 953.15 103.45
  C 949.41 105.82 944.42 107.52 940.83 110.70
  A 1.00 0.99 -47.6 0 0 940.90 112.25
  C 945.69 115.76 950.65 120.46 949.52 126.69
  Q 948.84 130.41 945.18 130.10
  A 0.97 0.96 2.6 0 1 944.30 129.14
  L 944.30 124.64
  A 5.34 5.32 -67.7 0 0 942.73 120.86
  L 939.44 117.56
  A 1.38 1.38 0.0 0 0 937.09 118.53
  Q 937.07 129.97 937.12 151.11
  C 937.14 157.71 937.94 162.46 944.34 164.41
  A 1.78 1.76 5.4 0 1 945.59 165.90
  C 945.95 168.92 944.19 169.56 941.31 169.51
  Q 926.88 169.21 912.88 169.64
  A 2.52 2.51 77.0 0 1 910.51 168.15
  C 908.60 163.87 913.65 163.81 915.30 161.78
  Q 917.90 158.58 917.92 154.98
  Q 918.00 141.84 918.14 121.09
  A 0.71 0.71 0.0 0 0 917.43 120.38
  L 891.06 120.38
  A 1.42 1.42 0.0 0 0 889.64 121.77
  Q 889.31 135.65 889.54 149.91
  C 889.66 157.27 889.59 161.83 896.47 164.30
  C 898.11 164.89 897.75 167.28 897.29 168.48
  Q 896.87 169.55 895.25 169.52
  Q 879.96 169.25 864.99 169.63
  Q 862.32 169.70 862.29 166.12
  A 2.09 2.08 -7.1 0 1 863.89 164.07
  Q 868.09 163.05 870.06 157.76
  A 0.54 0.53 -69.0 0 0 869.76 157.07
  C 862.01 154.00 859.57 143.38 861.35 136.35
  Q 863.39 128.30 869.36 123.45
  A 3.09 3.08 -19.4 0 0 870.49 121.11
  Q 870.75 101.39 870.43 79.62
  C 870.36 74.86 866.97 73.64 863.38 71.78
  A 1.69 1.66 3.2 0 1 862.59 70.91
  C 862.03 69.48 861.91 66.38 864.29 66.36
  Q 871.92 66.30 895.85 66.35
  A 1.05 1.03 -8.2 0 1 896.85 67.09
  Q 897.56 69.51 896.90 71.00
  A 1.33 1.31 -87.6 0 1 896.15 71.70
  Q 889.69 74.09 889.62 80.52
  Q 889.47 94.43 889.63 106.68
  A 0.61 0.61 0.0 0 0 890.73 107.03
  C 892.81 104.16 896.90 98.50 898.38 94.47
  C 903.16 81.45 902.41 68.91 892.63 58.86
  C 883.70 49.68 868.35 47.10 856.42 49.50
  Q 838.49 53.12 824.12 65.76
  A 0.45 0.45 0.0 0 0 824.43 66.54
  L 843.62 66.18
  A 7.07 6.98 35.9 0 0 845.44 65.90
  Q 851.35 64.19 852.23 64.05
  C 854.62 63.68 855.09 65.11 855.18 67.32
  Q 855.77 82.03 856.49 90.16
  A 2.33 2.32 -16.8 0 1 855.27 92.42
  Q 851.75 94.33 850.39 90.87
  Q 848.45 85.96 847.48 84.06
  Q 842.10 73.62 830.29 75.68
  A 0.50 0.50 0.0 0 0 830.00 76.49
  Q 837.01 84.89 839.90 95.75
  Q 843.80 110.38 834.21 121.67
  Q 832.48 123.71 830.38 124.69
  A 1.22 1.21 -12.7 0 0 829.68 125.79
  Q 829.65 148.27 829.73 154.49
  Q 829.80 161.07 835.54 163.82
  C 837.76 164.88 838.78 165.81 837.99 168.14
  A 1.90 1.89 9.1 0 1 836.19 169.43
  L 803.85 169.43
  A 1.51 1.51 0.0 0 1 802.43 168.43
  C 800.80 163.82 804.45 164.04 807.11 162.24
  A 4.62 4.42 1.2 0 0 808.09 161.34
  Q 810.58 158.26 810.58 152.26
  Q 810.57 138.44 810.57 128.69
  A 1.45 1.44 17.0 0 0 809.93 127.49
  C 804.06 123.48 799.37 119.66 798.13 112.26
  A 0.80 0.80 0.0 0 0 797.45 111.60
  L 797.37 111.59
  A 0.52 0.52 0.0 0 0 796.78 112.14
  Q 797.05 116.19 798.22 121.29
  Q 798.57 122.83 798.21 128.68
  A 3.09 2.94 61.3 0 1 797.91 129.81
  C 793.10 139.61 784.90 143.51 774.67 145.87
  A 1.04 1.03 13.5 0 1 773.64 144.20
  C 776.02 141.38 776.43 139.16 776.34 135.05
  C 776.16 127.27 777.59 119.66 783.53 114.54
  A 4.33 4.21 10.8 0 1 784.38 113.98
  C 788.09 112.11 792.59 110.57 794.93 106.90
  A 2.40 2.39 66.1 0 0 795.27 106.01
  Q 795.99 101.50 797.48 93.96
  Q 799.37 84.43 804.58 76.33
  Q 804.74 76.07 804.71 75.88
  Q 804.62 75.36 804.07 75.42
  C 796.39 76.22 792.01 81.99 790.25 89.11
  C 789.48 92.21 787.82 93.85 784.77 92.49
  A 2.76 2.75 -75.4 0 1 783.15 89.72
  Q 785.06 68.54 785.08 68.27
  Q 785.18 66.60 786.11 64.15
  A 0.82 0.82 0.0 0 1 787.19 63.69
  Q 794.79 66.83 802.48 66.05
  A 0.42 0.42 0.0 0 0 802.60 65.24
  Q 785.26 58.00 768.27 65.31
  Q 767.95 65.45 767.89 65.65
  A 0.56 0.55 -82.8 0 0 768.45 66.38
  Q 772.81 66.07 777.65 65.96
  A 1.92 1.90 -11.0 0 1 779.46 67.17
  Q 780.32 69.36 779.64 70.84
  A 1.46 1.45 -0.7 0 1 778.93 71.56
  Q 772.08 74.80 770.11 82.38
  Q 759.22 124.38 748.12 169.92
  A 1.02 1.01 -83.0 0 1 747.14 170.70
  L 738.00 170.70
  A 1.41 1.40 83.2 0 1 736.64 169.62
  Q 733.08 154.97 723.19 115.06
  Q 723.07 114.57 722.93 114.44
  A 0.54 0.54 0.0 0 0 722.02 114.69
  L 708.11 169.26
  A 1.91 1.91 0.0 0 1 706.26 170.69
  L 698.54 170.69
  A 1.52 1.51 -7.1 0 1 697.07 169.55
  L 694.46 158.97
  A 0.78 0.78 0.0 0 0 693.04 158.74
  Q 692.74 159.20 686.84 168.86
  Q 681.12 178.24 673.47 186.07
  A 0.63 0.63 0.0 0 0 673.92 187.13
  L 675.70 187.13
  A 0.98 0.98 0.0 0 0 676.17 187.01
  Q 682.62 183.58 683.82 183.14
  Q 688.45 181.44 694.14 181.91
  C 701.10 182.50 708.49 188.15 711.97 193.86
  Q 715.85 200.20 718.66 208.16
  A 0.53 0.53 0.0 0 1 717.97 208.83
  C 704.54 203.82 690.41 213.10 681.42 199.04
  C 678.38 194.28 675.80 190.33 669.68 191.14
  Q 667.97 191.37 662.52 194.94
  Q 656.80 198.68 651.73 200.45
  Q 649.62 201.19 641.48 203.09
  Q 636.06 204.36 631.11 204.33
  Q 598.86 204.12 576.97 181.38
  A 1.17 1.17 0.0 0 0 574.96 182.19
  L 574.96 184.28
  A 4.24 4.24 0.0 0 0 576.71 187.71
  C 581.92 191.50 586.65 196.24 587.25 202.97
  C 587.89 210.28 582.00 219.62 576.98 224.99
  A 0.64 0.64 0.0 0 1 575.87 224.58
  C 575.71 220.19 574.36 215.92 571.43 212.32
  Q 569.58 210.04 567.92 207.36
  A 4.69 4.57 20.3 0 1 567.51 206.50
  C 564.67 198.45 568.15 193.27 571.78 186.41
  A 0.66 0.66 0.0 0 0 570.74 185.62
  C 563.11 192.95 554.88 200.30 543.75 199.06
  Q 539.03 198.54 534.78 197.20
  C 531.40 196.14 528.18 188.96 526.84 185.66
  Q 525.46 182.26 524.20 180.54
  A 0.45 0.45 0.0 0 1 524.69 179.84
  L 525.54 180.08
  A 3.74 3.74 0.0 0 1 527.79 181.88
  Q 528.20 182.61 529.48 186.02
  Q 532.09 192.96 539.33 195.38
  A 0.39 0.39 0.0 0 0 539.81 195.16
  L 539.91 194.92
  A 0.18 0.17 -65.7 0 0 539.83 194.69
  Q 533.19 191.36 529.88 184.16
  A 0.41 0.41 0.0 0 1 530.39 183.60
  C 531.87 184.11 534.22 187.50 536.13 189.69
  A 4.95 4.81 -7.4 0 0 537.76 190.91
  C 547.00 195.12 557.71 188.98 563.56 182.01
  Q 566.37 178.66 569.97 173.51
  A 0.82 0.82 0.0 0 0 569.94 172.53
  Q 567.44 169.36 565.08 164.89
  C 559.69 154.66 553.83 140.34 547.87 127.67
  Q 545.86 123.39 540.81 123.47
  A 1.24 1.23 89.8 0 0 539.60 124.70
  Q 539.54 138.39 539.72 156.24
  C 539.77 161.19 542.81 162.95 546.93 164.44
  A 1.39 1.38 86.7 0 1 547.73 165.16
  C 548.43 166.64 548.18 169.43 545.95 169.42
  Q 529.70 169.38 515.25 169.53
  Q 512.17 169.56 512.67 165.78
  A 1.74 1.73 86.5 0 1 513.96 164.32
  C 517.57 163.38 519.36 160.63 519.91 156.84
  Q 520.84 150.41 520.84 149.50
  Q 520.87 141.73 520.59 80.98
  C 520.57 76.29 518.40 74.49 513.84 71.63
  A 1.97 1.94 -0.5 0 1 513.26 71.07
  Q 512.40 69.79 512.99 67.45
  A 1.52 1.51 7.1 0 1 514.46 66.31
  Q 549.39 66.34 552.07 66.36
  Q 557.94 66.42 563.34 68.48
  C 579.12 74.52 583.38 92.38 576.69 106.80
  Q 572.37 116.10 562.76 119.67
  A 0.61 0.60 57.7 0 0 562.54 120.66
  C 566.80 125.05 570.02 131.03 572.49 136.96
  Q 576.14 145.70 579.82 151.91
  A 0.50 0.50 0.0 0 0 580.71 151.86
  Q 584.39 143.64 589.73 136.74
  A 1.74 1.72 -32.4 0 0 590.05 135.34
  Q 584.96 110.97 594.10 88.76
  A 3.89 3.87 43.2 0 0 593.99 85.58
  C 590.33 78.08 587.82 72.26 587.29 64.75
  Q 587.15 62.80 587.86 61.66
  A 0.72 0.72 0.0 0 1 589.13 61.74
  L 592.84 70.02
  A 0.46 0.46 0.0 0 0 593.53 70.20
  L 593.76 70.04
  A 0.37 0.37 0.0 0 0 593.90 69.64
  Q 593.54 68.47 591.79 62.38
  C 589.95 56.01 590.47 50.36 593.98 45.19
  C 599.96 36.36 609.99 33.99 619.98 34.16
  A 0.80 0.80 0.0 0 1 620.57 35.48
  Q 616.78 39.90 615.86 45.64
  C 614.64 53.30 613.17 59.67 606.19 63.44
  C 602.20 65.60 597.19 68.17 596.99 72.77
  Q 596.86 75.78 597.50 78.51
  A 1.45 1.45 0.0 0 0 599.45 79.52
  Q 599.93 79.33 600.66 78.43
  Q 612.66 63.86 630.47 64.11
  C 649.91 64.38 663.69 79.73 667.84 97.93
  Q 671.24 112.82 670.14 126.11
  C 669.77 130.54 668.33 134.93 668.10 138.99
  A 3.84 3.77 39.3 0 0 668.24 140.27
  Q 669.17 143.51 669.82 147.05
  Q 673.19 165.69 663.22 181.22
  Q 662.80 181.87 662.86 182.46
  A 0.51 0.51 0.0 0 0 663.69 182.81
  Q 666.79 180.33 669.35 177.10
  Q 673.77 171.53 678.20 165.21
  C 683.14 158.17 685.19 153.77 689.83 145.25
  A 1.93 1.89 53.7 0 0 690.02 143.93
  Q 682.54 110.63 674.90 81.58
  C 673.55 76.43 670.78 73.96 667.02 71.07
  A 1.76 1.73 -79.6 0 1 666.40 70.16
  C 665.89 68.39 666.69 66.18 668.81 66.21
  Q 683.75 66.41 695.96 66.29
  C 699.17 66.26 700.37 66.87 700.08 70.18
  A 1.17 1.17 0.0 0 1 699.54 71.07
  C 696.79 72.82 694.57 73.75 694.19 77.25
  C 693.91 79.78 695.25 83.67 695.88 86.42
  Q 702.18 114.07 703.37 118.76
  A 0.88 0.87 54.2 0 0 704.95 119.02
  Q 708.28 113.82 713.44 106.89
  C 715.65 103.93 718.38 97.84 717.51 94.01
  Q 717.02 91.83 713.90 80.61
  Q 712.11 74.21 707.65 71.92
  C 705.55 70.84 705.43 69.48 705.99 67.55
  A 1.70 1.70 0.0 0 1 707.63 66.31
  L 738.08 66.31
  A 1.66 1.65 -4.2 0 1 739.72 67.72
  Q 739.97 69.44 739.37 70.78
  A 1.01 0.96 -6.7 0 1 739.03 71.19
  L 735.26 73.68
  A 2.77 2.76 73.2 0 0 734.03 75.98
  L 734.03 78.81
  A 0.73 0.73 0.0 0 0 735.32 79.28
  Q 747.49 64.48 764.35 56.60
  A 0.43 0.43 0.0 0 0 764.12 55.78
  C 756.95 56.57 748.96 56.63 743.94 50.95
  C 742.47 49.29 741.14 45.66 740.16 43.62
  Q 737.91 38.97 732.88 36.12
  Q 732.29 35.79 732.17 35.23
  A 0.61 0.60 -17.0 0 1 732.54 34.54
  Q 741.37 31.03 750.60 32.75
  C 761.89 34.86 764.82 39.36 766.24 50.68
  A 1.57 1.53 -75.1 0 0 766.82 51.71
  Q 769.65 53.91 772.91 53.63
  C 777.94 53.20 782.87 51.81 787.39 52.21
  C 795.10 52.90 801.76 54.16 808.40 57.64
  Q 812.17 59.62 814.98 61.24
  A 0.82 0.81 -53.4 0 0 815.97 61.09
  Q 837.77 38.13 868.79 39.32
  C 879.97 39.75 890.36 43.87 898.05 51.58
  Q 900.56 54.11 900.60 54.13
  A 0.36 0.36 0.0 0 0 901.15 53.84
  Z
  M 915.53 45.18
  Q 914.94 46.27 913.27 47.29
  Q 909.60 49.54 906.15 51.83
  A 0.50 0.50 0.0 0 0 906.51 52.74
  Q 913.45 51.57 916.78 45.84
  C 919.11 41.82 918.54 35.86 917.67 31.23
  C 917.38 29.72 917.40 25.19 917.34 25.08
  A 0.30 0.30 0.0 0 0 916.81 25.10
  Q 916.56 25.63 908.10 31.36
  Q 897.69 38.42 902.94 50.21
  A 0.49 0.49 0.0 0 0 903.87 49.98
  Q 903.66 46.28 903.39 43.75
  Q 903.19 41.86 905.49 36.35
  A 0.19 0.19 0.0 0 1 905.73 36.24
  L 906.00 36.33
  A 0.42 0.41 19.7 0 1 906.26 36.87
  C 905.11 39.95 904.26 43.01 905.57 46.07
  A 0.67 0.67 0.0 0 0 906.86 45.88
  L 908.11 34.75
  A 0.87 0.86 -84.2 0 1 909.04 33.99
  Q 909.90 34.06 909.92 34.62
  Q 909.99 36.51 910.30 37.62
  A 0.45 0.45 0.0 0 0 911.16 37.63
  L 913.53 29.79
  A 1.12 1.12 0.0 0 1 915.47 29.39
  Q 915.65 29.59 915.51 30.54
  Q 914.93 34.55 916.08 37.58
  A 1.88 1.84 -52.1 0 1 916.18 38.47
  Q 915.84 41.00 914.95 41.76
  C 912.60 43.75 910.27 45.24 909.60 47.13
  A 0.31 0.31 0.0 0 0 910.05 47.50
  L 914.98 44.65
  A 0.40 0.40 0.0 0 1 915.53 45.18
  Z
  M 752.90 44.86
  L 743.66 40.42
  A 0.16 0.16 0.0 0 1 743.57 40.25
  L 743.61 39.87
  A 0.36 0.36 0.0 0 1 744.06 39.56
  L 747.09 40.33
  A 0.58 0.58 0.0 0 0 747.58 39.31
  L 745.05 37.35
  A 0.43 0.43 0.0 0 1 745.45 36.61
  Q 749.26 37.93 751.89 41.37
  A 0.48 0.48 0.0 0 0 752.58 41.45
  L 752.91 41.18
  A 0.48 0.47 -41.7 0 0 752.95 40.50
  Q 751.88 39.33 751.51 38.36
  A 0.49 0.48 14.8 0 1 752.34 37.88
  L 759.22 46.12
  A 0.41 0.41 0.0 0 0 759.92 45.71
  Q 758.44 41.93 754.43 36.47
  A 1.86 1.82 80.2 0 0 753.53 35.82
  Q 746.64 33.62 739.14 35.12
  Q 737.73 35.41 737.33 35.66
  A 0.49 0.49 0.0 0 0 737.33 36.49
  L 741.52 39.10
  A 1.00 0.99 -77.7 0 1 741.98 39.82
  Q 742.51 44.14 745.63 48.37
  A 2.61 2.60 -18.3 0 0 747.72 49.42
  L 755.67 49.42
  A 0.48 0.47 -0.0 0 0 756.15 48.95
  L 756.15 48.56
  A 0.34 0.33 6.7 0 0 755.89 48.24
  L 746.57 46.24
  A 0.58 0.57 -79.3 0 1 746.12 45.57
  L 746.13 45.56
  A 0.62 0.61 8.1 0 1 746.80 45.06
  L 752.65 45.74
  A 0.46 0.46 0.0 0 0 752.90 44.86
  Z
  M 756.40 37.32
  Q 756.41 37.56 756.92 38.16
  Q 759.88 41.66 760.32 42.25
  A 3.99 3.97 -71.4 0 1 760.96 43.55
  Q 762.42 48.85 762.93 49.88
  Q 763.18 50.39 763.52 50.37
  Q 763.94 50.34 763.89 49.88
  C 763.31 44.87 761.94 39.84 757.13 36.89
  A 0.49 0.48 -75.1 0 0 756.40 37.32
  Z
  M 915.1466 36.8761
  A 3.18 0.96 -56.9 0 0 912.6058 39.0157
  A 3.18 0.96 -56.9 0 0 911.6734 42.2039
  A 3.18 0.96 -56.9 0 0 914.2142 40.0643
  A 3.18 0.96 -56.9 0 0 915.1466 36.8761
  Z
  M 597.09 57.28
  A 0.09 0.09 0.0 0 0 597.19 57.20
  L 599.09 47.78
  A 2.23 2.22 80.9 0 1 600.16 46.29
  L 600.76 45.94
  A 0.37 0.37 0.0 0 1 601.31 46.35
  L 599.01 55.37
  A 0.43 0.43 0.0 0 0 599.83 55.65
  Q 602.41 49.67 603.64 43.29
  Q 603.78 42.61 605.10 41.34
  A 0.41 0.41 0.0 0 1 605.78 41.52
  Q 605.99 42.21 605.86 42.81
  A 0.44 0.44 0.0 0 0 606.66 43.15
  Q 608.32 40.63 611.71 39.05
  A 0.46 0.45 75.7 0 1 612.36 39.44
  L 612.36 39.50
  A 1.02 1.02 0.0 0 1 611.84 40.44
  Q 609.74 41.63 608.43 43.63
  A 0.26 0.25 47.7 0 0 608.42 43.90
  L 608.58 44.18
  A 0.45 0.45 0.0 0 0 609.33 44.22
  Q 610.05 43.29 610.77 43.27
  A 0.42 0.42 0.0 0 1 611.06 44.01
  C 607.35 47.20 604.64 49.13 603.87 51.16
  A 0.51 0.51 0.0 0 0 604.60 51.78
  L 610.19 48.53
  A 0.48 0.48 0.0 0 1 610.91 48.90
  L 610.92 48.94
  A 0.89 0.88 69.9 0 1 610.53 49.79
  Q 607.93 51.47 605.08 53.09
  C 602.83 54.37 601.84 57.05 599.87 57.98
  Q 599.82 58.00 599.86 58.24
  Q 599.89 58.43 600.01 58.56
  A 0.22 0.22 0.0 0 0 600.29 58.61
  L 608.04 54.13
  A 0.31 0.31 0.0 0 1 608.50 54.40
  L 608.50 54.73
  A 1.25 1.25 0.0 0 1 607.94 55.77
  C 603.74 58.48 599.49 60.79 597.78 64.98
  A 0.37 0.36 -9.7 0 0 598.36 65.39
  Q 601.83 62.35 605.43 60.57
  C 610.30 58.16 611.71 53.53 612.42 48.36
  C 613.01 43.95 613.90 40.69 615.81 37.54
  A 0.43 0.43 0.0 0 0 615.36 36.90
  Q 609.36 38.09 604.65 39.96
  C 595.30 43.66 591.28 52.07 595.09 61.86
  A 0.40 0.40 0.0 0 0 595.86 61.69
  C 595.75 59.67 594.69 54.68 595.89 51.86
  A 0.53 0.53 0.0 0 1 596.90 52.07
  L 596.85 57.02
  A 0.26 0.25 6.5 0 0 597.06 57.28
  L 597.09 57.28
  Z
  M 897.82 106.28
  A 0.37 0.36 -50.3 0 0 898.32 106.23
  C 907.36 96.02 909.62 81.48 905.77 68.69
  C 901.94 55.96 891.11 46.88 878.41 43.72
  C 867.81 41.08 854.26 41.39 843.87 45.59
  Q 829.08 51.58 817.81 63.37
  A 0.49 0.49 0.0 0 0 817.80 64.04
  L 817.85 64.09
  A 0.51 0.50 -40.2 0 0 818.53 64.14
  Q 825.46 58.42 831.68 53.93
  C 832.51 53.34 833.78 53.15 834.73 52.56
  Q 843.84 46.90 851.75 45.51
  Q 857.90 44.42 863.71 44.00
  Q 880.02 42.81 892.73 52.67
  Q 899.93 58.25 902.91 65.06
  Q 909.06 79.11 904.01 94.34
  Q 901.99 100.45 897.54 105.51
  A 0.41 0.41 0.0 0 0 897.60 106.11
  L 897.82 106.28
  Z
  M 893.15 54.77
  Q 892.48 53.79 890.63 52.56
  C 884.44 48.42 878.42 46.59 870.88 45.19
  Q 867.84 44.63 862.04 44.81
  C 857.92 44.95 852.97 46.26 849.49 47.22
  Q 833.72 51.58 821.15 64.46
  A 0.57 0.56 41.4 0 0 821.21 65.29
  L 821.26 65.32
  A 0.62 0.61 -48.9 0 0 822.09 65.26
  Q 832.79 53.72 848.53 48.76
  Q 872.82 41.11 892.81 55.11
  A 0.24 0.24 0.0 0 0 893.15 54.77
  Z
  M 758.75 51.39
  A 1.96 1.94 -39.5 0 0 757.55 51.28
  C 754.19 52.01 751.10 51.28 748.54 50.61
  A 0.56 0.56 0.0 0 0 748.04 51.59
  C 751.10 54.14 757.17 54.02 761.29 53.43
  A 0.47 0.47 0.0 0 0 761.41 52.53
  L 758.75 51.39
  Z
  M 790.56 57.26
  Q 791.82 57.13 793.98 57.55
  Q 804.12 59.53 813.18 65.49
  A 0.39 0.38 -54.5 0 0 813.70 65.40
  L 813.75 65.32
  A 0.39 0.39 0.0 0 0 813.68 64.78
  C 803.59 56.78 791.02 53.41 778.28 55.69
  Q 769.79 57.21 763.97 60.01
  Q 748.81 67.32 735.86 82.84
  A 0.28 0.27 32.1 0 0 735.96 83.27
  L 736.62 83.54
  A 0.04 0.03 -52.0 0 0 736.66 83.53
  Q 746.35 72.78 758.07 65.30
  Q 758.84 64.81 759.60 64.72
  A 0.19 0.19 0.0 0 1 759.73 65.06
  C 750.79 71.31 745.39 76.49 736.55 85.34
  A 0.24 0.22 -36.6 0 0 736.50 85.60
  L 736.68 86.02
  A 0.29 0.28 -34.9 0 0 737.14 86.10
  C 746.73 76.43 755.49 68.15 767.72 62.46
  A 4.65 4.55 10.4 0 0 768.86 61.69
  Q 770.26 60.40 771.48 60.22
  C 777.73 59.28 782.70 58.14 787.87 58.92
  Q 800.13 60.78 810.79 66.73
  A 0.43 0.42 16.6 0 0 811.43 66.39
  Q 811.46 65.79 810.80 65.41
  Q 801.74 60.14 792.91 58.33
  Q 790.57 57.85 790.42 57.73
  A 0.27 0.26 62.1 0 1 790.56 57.26
  Z
  M 894.0676 56.0565
  A 0.54 0.25 -143.2 0 0 894.3502 56.5802
  A 0.54 0.25 -143.2 0 0 894.9324 56.7035
  A 0.54 0.25 -143.2 0 0 894.6498 56.1798
  A 0.54 0.25 -143.2 0 0 894.0676 56.0565
  Z
  M 895.67 57.49
  Q 895.82 57.86 896.50 58.45
  A 0.24 0.24 0.0 0 0 896.88 58.18
  Q 896.81 58.01 895.95 57.29
  A 0.18 0.18 0.0 0 0 895.67 57.49
  Z
  M 898.06 60.19
  Q 898.63 61.86 899.73 63.98
  Q 904.27 72.76 903.61 81.67
  Q 902.44 97.44 892.09 108.59
  A 0.48 0.48 0.0 0 0 892.09 109.24
  Q 892.50 109.68 892.98 109.22
  Q 895.85 106.52 896.45 106.13
  A 1.72 1.70 -5.4 0 0 897.07 105.39
  C 898.52 102.08 901.30 98.42 902.66 94.90
  Q 904.24 90.81 904.31 90.27
  C 905.82 78.56 904.79 68.98 898.35 60.04
  A 0.17 0.16 -72.2 0 0 898.06 60.19
  Z
  M 590.98 71.17
  A 0.41 0.40 -16.6 0 0 590.71 71.66
  Q 594.30 84.67 603.84 93.67
  Q 608.43 98.00 609.33 99.83
  A 1.96 1.91 7.3 0 0 609.87 100.51
  C 614.55 104.20 620.89 107.55 630.26 113.09
  Q 635.09 115.93 637.93 116.17
  A 0.29 0.29 0.0 0 1 638.19 116.49
  L 638.16 116.75
  A 0.84 0.83 -85.9 0 1 637.31 117.49
  Q 621.77 117.02 610.40 122.70
  A 0.74 0.74 0.0 0 0 610.03 123.57
  L 610.05 123.65
  A 0.59 0.58 65.6 0 0 610.92 123.98
  Q 612.50 123.01 614.36 122.73
  A 0.51 0.50 -64.1 0 1 614.68 123.67
  L 610.48 126.09
  A 0.29 0.28 60.3 0 0 610.38 126.48
  L 610.56 126.79
  A 0.43 0.42 59.0 0 0 611.15 126.94
  C 614.92 124.51 618.52 122.82 622.96 121.98
  Q 623.52 121.87 625.36 120.36
  Q 625.78 120.02 626.25 120.04
  Q 626.67 120.07 626.91 120.56
  A 0.88 0.87 76.0 0 0 627.73 121.06
  Q 631.96 120.93 640.30 122.92
  C 655.68 126.59 662.76 139.01 663.88 153.89
  C 664.25 158.87 662.32 165.33 661.59 170.22
  A 1.94 1.83 65.1 0 1 661.39 170.82
  L 658.04 176.79
  A 0.38 0.38 0.0 0 0 658.55 177.31
  Q 659.49 176.82 660.39 174.89
  Q 665.21 164.63 665.64 154.07
  Q 665.73 151.77 663.78 142.47
  A 0.29 0.28 76.2 0 1 663.98 142.13
  L 664.03 142.11
  A 0.30 0.30 0.0 0 1 664.40 142.29
  C 666.65 148.11 666.73 154.83 666.35 161.07
  Q 665.75 170.79 659.17 177.99
  A 1.72 1.70 -73.3 0 1 658.22 178.51
  C 656.79 178.76 656.22 180.90 655.08 182.00
  C 651.81 185.16 648.31 189.24 643.68 191.46
  Q 630.90 197.60 616.14 193.76
  A 0.17 0.16 9.5 0 0 615.94 193.90
  L 615.90 194.30
  A 0.32 0.31 14.4 0 0 616.10 194.63
  Q 628.27 198.90 640.45 195.23
  A 0.27 0.26 -21.7 0 1 640.76 195.36
  L 640.91 195.60
  A 0.47 0.47 0.0 0 1 640.66 196.28
  Q 628.50 200.61 616.29 196.35
  A 0.36 0.36 0.0 0 0 615.84 196.55
  L 615.84 196.57
  A 0.41 0.40 24.3 0 0 616.05 197.10
  C 621.98 199.81 626.66 199.34 634.12 199.01
  C 642.43 198.65 650.72 195.60 658.14 191.90
  Q 661.94 190.00 665.60 186.81
  Q 675.03 178.62 682.57 167.60
  C 683.70 165.94 685.69 166.49 686.49 164.65
  Q 688.46 160.15 691.44 157.11
  A 4.43 4.35 82.0 0 0 692.15 156.15
  Q 702.29 137.13 711.07 122.56
  Q 711.74 121.46 711.76 120.69
  A 0.29 0.29 0.0 0 0 711.24 120.51
  Q 707.08 126.30 703.00 133.74
  Q 694.42 149.38 690.65 156.69
  A 0.10 0.09 16.8 0 1 690.55 156.74
  L 690.13 156.69
  A 0.21 0.21 0.0 0 1 689.96 156.39
  Q 699.73 135.58 713.15 114.70
  Q 714.00 113.37 714.10 112.01
  Q 714.13 111.53 713.68 111.51
  Q 713.22 111.48 712.90 111.90
  Q 703.48 124.21 696.30 139.52
  Q 695.32 141.62 694.45 142.89
  C 692.66 145.52 691.57 148.74 690.03 151.46
  Q 684.20 161.78 682.66 164.42
  C 675.09 177.37 661.12 191.95 645.35 194.20
  A 0.49 0.49 0.0 0 1 645.04 193.28
  Q 655.79 187.35 662.40 176.79
  Q 667.59 168.50 667.99 157.22
  C 668.61 139.57 659.57 125.74 644.37 116.91
  Q 635.11 111.52 633.80 110.92
  A 2.46 2.31 58.8 0 0 633.01 110.70
  L 631.75 110.56
  A 1.02 0.97 64.9 0 1 631.29 110.38
  C 629.08 108.76 625.23 107.41 622.30 105.44
  Q 618.16 102.66 613.78 100.51
  A 8.69 6.67 33.2 0 1 612.71 99.91
  Q 611.20 98.93 604.87 92.64
  Q 595.20 83.01 591.52 71.43
  A 0.41 0.41 0.0 0 0 591.00 71.17
  L 590.98 71.17
  Z
  M 748.13 135.70
  Q 755.10 106.23 755.28 105.32
  C 756.81 97.72 759.93 88.41 760.87 80.81
  Q 761.56 75.25 757.79 72.64
  A 2.39 2.38 39.9 0 0 754.74 72.91
  L 737.55 90.10
  A 3.03 3.03 0.0 0 0 736.75 92.97
  L 747.32 135.70
  A 0.42 0.42 0.0 0 0 748.13 135.70
  Z
  M 649.44 115.65
  Q 649.62 100.50 644.42 86.10
  C 642.02 79.47 635.99 71.52 627.89 72.65
  C 618.18 74.00 613.31 84.80 611.70 93.22
  A 2.29 2.28 -66.2 0 0 612.58 95.50
  C 623.85 103.94 636.25 109.65 648.56 116.17
  A 0.60 0.60 0.0 0 0 649.44 115.65
  Z
  M 810.51 123.38
  A 0.43 0.43 0.0 0 0 810.34 122.82
  Q 802.88 118.51 801.40 110.87
  Q 799.57 101.42 802.93 91.15
  Q 806.61 79.92 810.47 74.61
  A 0.63 0.61 -53.7 0 0 810.35 73.75
  L 810.30 73.72
  A 0.51 0.51 0.0 0 0 809.59 73.81
  C 799.46 86.88 790.97 113.07 809.91 123.64
  A 0.39 0.39 0.0 0 0 810.46 123.48
  L 810.51 123.38
  Z
  M 539.67 77.03
  L 539.55 112.43
  A 2.64 2.64 0.0 0 0 542.18 115.08
  L 543.91 115.09
  A 16.33 15.79 -89.8 0 0 559.76 98.82
  L 559.78 90.80
  A 16.33 15.79 -89.8 0 0 544.05 74.41
  L 542.32 74.40
  A 2.64 2.64 0.0 0 0 539.67 77.03
  Z
  M 803.08 101.56
  Q 803.86 97.10 804.98 92.51
  C 806.30 87.08 808.83 81.66 811.85 76.21
  A 0.12 0.12 0.0 0 0 811.79 76.04
  L 811.49 75.91
  A 0.24 0.23 29.2 0 0 811.20 75.99
  Q 805.55 83.66 803.03 93.24
  Q 801.83 97.80 802.53 101.56
  A 0.28 0.28 0.0 0 0 803.08 101.56
  Z
  M 828.44 82.22
  Q 828.09 83.14 828.40 83.85
  C 830.54 88.77 832.79 93.52 833.95 98.96
  Q 834.84 103.14 834.77 105.00
  Q 834.53 112.10 830.03 116.77
  A 0.45 0.44 -63.0 0 0 830.27 117.52
  L 830.66 117.57
  A 1.10 1.09 22.1 0 0 831.67 117.15
  L 836.67 110.69
  A 3.23 3.18 72.2 0 0 837.22 109.60
  C 838.94 103.65 838.37 98.09 834.87 92.52
  Q 833.95 91.05 829.01 82.18
  A 0.32 0.31 -48.6 0 0 828.44 82.22
  Z
  M 809.75 116.16
  A 0.50 0.49 26.7 0 0 810.64 115.87
  L 810.64 84.52
  A 0.40 0.39 -33.7 0 0 809.88 84.37
  Q 807.09 90.93 805.93 98.36
  Q 805.05 103.97 805.86 107.66
  Q 806.90 112.37 809.75 116.16
  Z
  M 953.42 96.77
  L 945.77 103.73
  A 0.27 0.27 0.0 0 0 945.74 104.10
  L 946.06 104.48
  A 0.63 0.62 49.8 0 0 946.95 104.56
  L 953.97 98.70
  A 2.04 2.01 77.4 0 0 954.63 97.64
  L 956.97 88.48
  A 0.98 0.98 0.0 0 0 955.85 87.27
  C 951.75 88.02 946.60 90.25 944.92 94.21
  Q 944.08 96.21 943.24 101.94
  A 0.13 0.11 17.9 0 0 943.31 102.06
  L 943.78 102.26
  A 0.35 0.35 0.0 0 0 944.26 101.97
  Q 945.07 92.04 954.33 89.51
  A 0.59 0.59 0.0 0 1 955.03 90.31
  L 953.57 93.71
  A 2.23 2.23 0.0 0 1 951.88 95.04
  L 948.27 95.65
  A 0.48 0.47 -83.3 0 0 947.94 95.92
  L 947.84 96.16
  A 0.42 0.42 0.0 0 0 948.17 96.74
  Q 950.75 97.05 952.94 96.04
  A 0.44 0.44 0.0 0 1 953.42 96.77
  Z
  M 951.52 93.30
  Q 952.48 93.19 953.15 92.42
  A 0.41 0.41 0.0 0 0 952.93 91.75
  Q 951.50 91.44 950.99 92.38
  A 0.62 0.57 -77.4 0 0 951.52 93.30
  Z
  M 829.76 95.38
  L 829.86 109.22
  A 0.13 0.13 0.0 0 0 829.99 109.35
  L 830.04 109.35
  A 6.37 1.76 89.6 0 0 831.75 102.96
  L 831.75 101.60
  A 6.37 1.76 89.6 0 0 829.94 95.25
  L 829.89 95.25
  A 0.13 0.13 0.0 0 0 829.76 95.38
  Z
  M 625.83 113.94
  L 610.64 105.17
  A 0.54 0.54 0.0 0 0 609.84 105.55
  Q 608.70 112.10 609.13 119.32
  A 0.56 0.56 0.0 0 0 609.92 119.79
  Q 617.21 116.45 625.72 114.63
  A 0.37 0.37 0.0 0 0 625.83 113.94
  Z
  M 804.52 115.76
  Q 806.35 118.64 810.22 120.47
  A 0.21 0.21 0.0 0 0 810.47 120.14
  C 809.41 118.87 806.88 117.49 805.42 115.19
  C 803.96 112.89 803.78 110.01 803.08 108.51
  A 0.21 0.21 0.0 0 0 802.67 108.60
  Q 802.69 112.88 804.52 115.76
  Z
  M 870.37 153.33
  A 0.04 0.03 38.0 0 0 870.36 153.29
  C 866.81 148.98 864.29 144.41 865.37 138.50
  C 866.90 130.09 871.78 126.63 878.43 121.69
  A 0.39 0.38 -47.5 0 1 878.84 121.67
  L 879.17 121.86
  A 0.38 0.38 0.0 0 1 879.18 122.51
  C 873.18 126.37 867.83 131.74 866.70 138.76
  Q 865.70 145.00 869.93 149.86
  A 0.31 0.31 0.0 0 0 870.43 149.51
  L 868.34 145.72
  A 1.00 0.95 25.1 0 1 868.25 145.49
  Q 866.06 136.77 871.72 129.98
  Q 872.86 128.61 874.06 127.23
  A 5.08 4.59 -0.9 0 1 874.80 126.54
  C 878.75 123.57 884.85 119.09 890.55 116.91
  Q 897.66 114.19 898.26 114.02
  Q 904.21 112.40 915.90 111.04
  C 926.54 109.80 938.33 112.52 945.59 120.38
  A 0.24 0.24 0.0 0 0 945.93 120.40
  L 945.94 120.39
  A 0.18 0.18 0.0 0 0 945.96 120.14
  Q 940.00 113.01 932.33 110.64
  C 916.15 105.64 899.92 109.86 884.48 116.50
  C 878.22 119.19 871.71 123.34 867.80 128.91
  Q 865.55 132.12 865.07 133.33
  Q 860.46 145.04 869.80 153.86
  A 0.19 0.18 -53.7 0 0 870.09 153.81
  L 870.37 153.33
  Z
  M 835.97 112.97
  L 832.24 119.24
  A 0.14 0.14 0.0 0 0 832.29 119.43
  L 832.34 119.46
  A 3.15 1.16 -59.2 0 0 834.95 117.35
  L 835.60 116.25
  A 3.15 1.16 -59.2 0 0 836.22 112.95
  L 836.17 112.92
  A 0.14 0.14 0.0 0 0 835.97 112.97
  Z
  M 793.69 116.41
  L 794.00 125.42
  A 2.63 2.60 -33.3 0 1 793.74 126.64
  L 791.09 132.02
  A 0.04 0.03 -60.6 0 1 791.04 132.04
  L 790.73 131.91
  A 0.29 0.29 0.0 0 1 790.57 131.54
  Q 792.24 126.98 791.56 122.55
  A 0.43 0.43 0.0 0 0 790.81 122.33
  Q 790.48 122.71 790.39 123.20
  Q 789.61 127.64 788.37 132.11
  A 0.61 0.56 69.2 0 1 788.31 132.26
  L 785.01 137.44
  A 1.76 1.76 0.0 0 1 783.53 138.25
  L 783.20 138.25
  A 0.52 0.52 0.0 0 1 782.79 137.42
  Q 784.79 134.84 784.65 133.36
  A 0.57 0.56 48.9 0 0 783.54 133.28
  Q 783.42 133.79 782.27 134.15
  A 0.29 0.28 -82.1 0 1 781.95 133.72
  Q 782.76 132.45 783.22 129.86
  A 1.30 1.28 78.6 0 1 783.76 129.03
  Q 786.26 127.29 787.69 124.81
  A 0.57 0.57 0.0 0 0 786.83 124.09
  L 782.90 127.37
  A 0.35 0.35 0.0 0 1 782.40 127.33
  L 782.18 127.06
  A 0.64 0.64 0.0 0 1 782.22 126.20
  L 789.04 119.38
  A 0.46 0.46 0.0 0 0 788.83 118.61
  L 788.56 118.54
  A 1.12 1.10 30.4 0 0 787.53 118.80
  L 783.64 122.44
  A 0.49 0.47 28.5 0 1 783.24 122.55
  L 783.21 122.55
  A 0.37 0.37 0.0 0 1 783.09 122.06
  C 785.14 118.45 790.11 115.53 792.19 114.00
  A 0.49 0.49 0.0 0 0 791.76 113.14
  Q 783.80 115.56 781.04 122.61
  Q 779.91 125.49 779.84 131.97
  Q 779.80 136.16 778.85 141.35
  A 0.42 0.42 0.0 0 0 779.39 141.83
  C 786.36 139.65 796.22 132.99 795.90 124.66
  Q 795.72 120.03 794.31 116.29
  A 0.32 0.32 0.0 0 0 793.69 116.41
  Z
  M 610.13 131.91
  C 610.62 141.06 612.73 150.50 618.43 157.89
  C 621.62 162.02 627.98 164.57 633.02 162.98
  C 644.74 159.29 648.40 141.02 648.69 130.30
  A 2.55 2.55 0.0 0 0 647.12 127.89
  Q 629.67 120.64 612.72 128.66
  Q 611.03 129.46 610.37 130.78
  A 2.26 2.22 57.6 0 0 610.13 131.91
  Z
  M 709.9730 129.4122
  A 3.90 0.79 -69.7 0 0 707.8791 132.7959
  A 3.90 0.79 -69.7 0 0 707.2670 136.7278
  A 3.90 0.79 -69.7 0 0 709.3609 133.3441
  A 3.90 0.79 -69.7 0 0 709.9730 129.4122
  Z
  M 870.0431 136.5902
  A 4.48 0.92 -90.6 0 0 869.1701 141.0796
  A 4.48 0.92 -90.6 0 0 870.1369 145.5498
  A 4.48 0.92 -90.6 0 0 871.0099 141.0604
  A 4.48 0.92 -90.6 0 0 870.0431 136.5902
  Z
  M 546.85 196.37
  C 549.76 197.03 555.44 194.25 557.63 192.86
  C 564.12 188.74 570.22 182.53 573.92 175.97
  Q 574.69 174.62 580.99 164.96
  C 583.19 161.60 584.08 158.66 585.50 154.69
  A 2.25 1.58 80.0 0 1 585.64 154.39
  L 588.85 148.67
  A 0.58 0.53 55.3 0 0 588.90 148.30
  Q 588.77 147.68 587.95 147.86
  A 0.45 0.45 0.0 0 1 587.45 147.21
  Q 588.82 144.54 591.12 142.44
  A 0.68 0.67 53.6 0 0 591.24 141.62
  L 591.19 141.53
  A 0.48 0.47 54.7 0 0 590.47 141.40
  Q 588.17 143.34 587.14 145.15
  Q 582.73 152.94 577.27 165.22
  C 573.79 173.05 569.98 178.39 565.02 184.31
  Q 558.13 192.54 546.83 195.96
  A 0.21 0.21 0.0 0 0 546.85 196.37
  Z
  M 661.14 155.26
  A 0.50 0.50 0.0 0 0 660.22 154.98
  Q 654.69 163.61 645.30 168.07
  C 625.44 177.52 602.81 168.36 594.11 148.19
  A 0.62 0.61 -40.0 0 0 593.03 148.10
  Q 588.56 154.89 585.47 162.40
  A 1.97 1.95 41.9 0 0 585.57 164.08
  Q 588.09 168.66 590.71 172.52
  C 597.18 182.05 608.01 188.90 618.92 191.26
  C 628.23 193.28 638.16 191.75 645.25 186.43
  Q 660.55 174.97 661.14 155.26
  Z
  M 631.01 201.11
  Q 633.30 202.04 636.51 201.54
  C 650.48 199.38 664.65 192.65 674.21 181.70
  Q 679.78 175.31 684.33 168.49
  A 0.08 0.08 0.0 0 0 684.31 168.39
  L 684.08 168.21
  A 0.22 0.22 0.0 0 0 683.78 168.25
  L 673.51 181.52
  A 0.73 0.62 -83.4 0 1 673.35 181.67
  Q 671.62 182.80 666.44 187.67
  Q 663.28 190.63 658.13 193.11
  Q 652.64 195.74 646.07 198.06
  Q 638.69 200.66 631.11 200.62
  A 0.26 0.25 -33.7 0 0 631.01 201.11
  Z
  M 680.76 191.93
  A 0.40 0.40 0.0 0 0 680.26 192.49
  Q 681.64 195.12 684.93 199.55
  C 689.33 205.50 700.59 204.21 707.01 203.57
  C 709.64 203.31 711.47 203.71 713.82 204.77
  A 0.60 0.59 -1.9 0 0 714.59 203.95
  Q 710.88 196.99 706.04 191.74
  C 702.19 187.55 695.38 183.02 689.54 184.46
  Q 685.26 185.52 682.72 187.51
  A 0.40 0.39 21.2 0 0 683.03 188.21
  L 694.24 186.31
  A 0.53 0.52 -22.5 0 1 694.76 186.52
  L 694.97 186.81
  A 0.46 0.45 -23.0 0 1 694.68 187.52
  Q 689.76 188.38 688.26 188.76
  A 0.72 0.59 -21.5 0 0 687.74 189.69
  Q 687.85 189.87 688.28 189.96
  Q 689.33 190.18 692.45 189.95
  A 0.94 0.93 -24.9 0 1 693.20 190.22
  L 693.72 190.74
  A 2.28 2.25 70.5 0 0 695.06 191.39
  L 703.85 192.38
  A 0.16 0.15 87.6 0 1 703.99 192.51
  L 704.03 192.77
  A 0.32 0.31 81.4 0 1 703.76 193.14
  L 699.53 193.57
  A 0.49 0.49 0.0 0 0 699.44 194.52
  Q 704.86 196.12 707.24 197.16
  Q 709.59 198.20 709.94 201.20
  A 0.65 0.65 0.0 0 1 709.33 201.92
  Q 707.53 202.04 705.97 200.50
  A 1.68 1.66 12.8 0 1 705.55 199.84
  Q 705.05 198.35 703.90 197.74
  A 0.42 0.42 0.0 0 0 703.40 198.41
  L 704.84 199.85
  A 0.59 0.59 0.0 0 1 704.58 200.84
  Q 703.61 201.09 702.64 199.92
  Q 700.04 196.77 697.35 195.62
  A 0.59 0.48 14.7 0 0 696.55 195.98
  Q 696.54 196.16 696.82 196.44
  Q 699.78 199.40 700.82 200.58
  A 0.48 0.48 0.0 0 1 700.51 201.38
  L 700.25 201.41
  A 1.77 1.77 0.0 0 1 698.83 200.90
  L 691.13 193.21
  A 0.55 0.54 26.0 0 0 690.20 193.53
  L 690.12 194.26
  A 1.78 1.76 26.0 0 0 690.63 195.72
  L 695.49 200.58
  A 0.72 0.72 0.0 0 1 694.70 201.76
  L 692.96 201.01
  A 0.76 0.69 79.6 0 1 692.67 200.79
  L 685.56 191.99
  A 0.34 0.34 0.0 0 0 684.98 192.07
  L 684.79 192.52
  A 1.37 1.37 0.0 0 0 684.94 193.87
  L 688.11 198.30
  A 0.36 0.35 -52.5 0 1 688.15 198.65
  L 688.02 198.94
  A 0.31 0.31 0.0 0 1 687.48 199.01
  C 684.96 195.82 683.24 192.88 680.76 191.93
  Z
  M 581.76 203.38
  Q 579.82 201.48 577.73 200.66
  A 0.50 0.49 -9.6 0 0 577.17 201.44
  Q 577.50 201.82 578.03 202.06
  A 2.71 2.70 -86.4 0 1 579.45 203.68
  Q 579.77 204.67 580.51 205.59
  A 3.97 3.95 37.4 0 1 581.06 209.63
  L 579.30 213.75
  A 1.09 1.08 -47.0 0 1 577.34 213.82
  Q 575.15 209.61 576.33 205.10
  A 0.53 0.53 0.0 0 0 575.44 204.59
  L 573.67 206.36
  A 0.18 0.17 43.9 0 1 573.42 206.36
  L 573.22 206.15
  A 0.28 0.27 42.6 0 1 573.20 205.78
  C 575.17 203.41 574.69 200.39 574.50 196.95
  A 0.39 0.39 0.0 0 0 573.82 196.70
  Q 573.38 197.17 572.64 201.50
  A 0.90 0.90 0.0 0 1 571.68 202.24
  L 571.55 202.23
  A 0.80 0.80 0.0 0 1 570.84 201.22
  Q 572.27 195.98 573.10 192.08
  A 0.75 0.70 88.0 0 0 572.21 191.20
  Q 571.65 191.37 571.41 192.00
  C 569.30 197.33 568.10 200.88 570.61 206.26
  A 4.78 4.67 -76.3 0 0 571.09 207.07
  C 574.46 211.58 576.91 214.58 578.24 218.89
  A 0.25 0.25 0.0 0 0 578.68 218.96
  Q 583.68 212.33 584.06 204.01
  Q 584.47 194.89 576.15 190.83
  A 0.39 0.39 0.0 0 0 575.72 191.46
  C 578.68 194.17 581.41 196.33 582.81 199.28
  Q 583.02 199.71 582.76 200.10
  A 0.36 0.36 0.0 0 1 582.20 200.16
  L 576.04 194.00
  A 0.30 0.30 0.0 0 0 575.62 194.00
  L 575.12 194.50
  A 0.10 0.09 -47.4 0 0 575.12 194.63
  L 582.64 202.74
  A 0.25 0.24 -44.2 0 1 582.63 203.08
  L 582.33 203.38
  A 0.41 0.40 44.5 0 1 581.76 203.38
  Z
  M 577.55 205.91
  L 578.03 213.02
  A 0.15 0.15 0.0 0 0 578.19 213.16
  A 2.59 1.21 86.1 0 0 579.22 210.49
  L 579.07 208.26
  A 2.59 1.21 86.1 0 0 577.69 205.75
  A 0.15 0.15 0.0 0 0 577.55 205.91
  Z"
/>
<ellipse fill="#27452d" cx="0.00" cy="0.00" transform="translate(761.94,63.60) rotate(-25.0)" rx="0.78" ry="0.21"/>
<ellipse fill="#27452d" cx="0.00" cy="0.00" transform="translate(328.64,91.65) rotate(-2.1)" rx="4.48" ry="0.27"/>
<path fill="#27452d" d="
  M 462.34 108.02
  C 462.37 111.52 462.16 114.69 460.94 117.84
  A 0.18 0.18 0.0 0 1 460.59 117.75
  Q 461.09 113.38 461.05 108.03
  Q 461.00 102.69 460.42 98.32
  A 0.18 0.18 0.0 0 1 460.77 98.23
  C 462.04 101.36 462.31 104.52 462.34 108.02
  Z"
/>
<ellipse fill="#27452d" cx="0.00" cy="0.00" transform="translate(634.41,113.19) rotate(-147.1)" rx="3.00" ry="0.53"/>
<path fill="#27452d" d="
  M 647.06 122.72
  C 651.20 124.72 655.11 127.00 657.14 130.64
  A 0.27 0.27 0.0 0 1 656.72 130.97
  Q 651.84 126.36 646.54 123.80
  Q 641.24 121.25 634.59 120.30
  A 0.27 0.27 0.0 0 1 634.59 119.77
  C 638.70 119.09 642.92 120.72 647.06 122.72
  Z"
/>
<path fill="#27452d" d="
  M 203.28 158.09
  L 205.08 165.35
  A 0.78 0.75 -43.6 0 1 205.06 165.77
  L 204.41 167.72
  A 0.70 0.70 0.0 0 1 203.05 167.55
  L 202.35 158.58
  A 0.54 0.54 0.0 0 1 202.39 158.33
  Q 202.47 158.12 202.54 158.00
  A 0.40 0.40 0.0 0 1 203.28 158.09
  Z"
/>
<path fill="#27452d" d="
  M 266.15 166.87
  A 0.30 0.30 0.0 0 1 266.54 167.21
  Q 265.94 170.67 264.06 174.06
  Q 256.56 187.59 241.88 193.09
  C 239.18 194.10 236.14 194.42 233.42 195.69
  A 1.07 1.06 -21.4 0 1 231.96 195.06
  L 231.89 194.82
  A 0.96 0.96 0.0 0 1 232.72 193.57
  Q 248.35 192.13 258.82 179.37
  C 261.85 175.68 263.85 170.95 265.72 167.23
  Q 265.86 166.96 266.15 166.87
  Z"
/>
<path fill="#27452d" d="
  M 696.55 188.95
  Q 697.55 188.20 699.13 188.91
  A 0.25 0.25 0.0 0 1 699.03 189.39
  L 696.70 189.39
  A 0.25 0.24 26.3 0 1 696.55 188.95
  Z"
/>
</svg>
